<svg viewBox="0 0 20 20" id="svg9954575296"><path d="M 0 9.921 C 0 4.442 4.442 0 9.921 0 C 15.4 0 19.841 4.442 19.841 9.921 C 19.841 15.4 15.4 19.841 9.921 19.841 C 4.442 19.841 0 15.4 0 9.921 Z M 10.913 5.952 C 10.913 5.404 10.469 4.96 9.921 4.96 C 9.373 4.96 8.929 5.404 8.929 5.952 L 8.929 9.921 C 8.929 10.184 9.033 10.436 9.219 10.622 L 11.699 13.102 C 12.087 13.49 12.715 13.49 13.102 13.102 C 13.49 12.715 13.49 12.087 13.102 11.699 L 10.913 9.51 Z" fill="var(--token-6bd54d18-2f9d-4c99-9127-40c6f1093cd7, rgb(0, 152, 242)) /* {&quot;name&quot;:&quot;Accent Blue&quot;} */"/></svg>