<svg viewBox="0 0 20 20" id="svg8682034084"><path d="M 19.841 5.98 C 19.841 7.126 18.972 8.069 17.857 8.186 L 17.857 14.517 C 18.501 14.87 19.007 15.456 19.251 16.186 L 19.355 16.5 C 19.783 17.784 18.827 19.111 17.473 19.111 L 2.368 19.111 C 1.014 19.111 0.058 17.784 0.486 16.5 L 0.591 16.186 C 0.834 15.456 1.341 14.87 1.984 14.517 L 1.984 8.186 C 0.869 8.069 0 7.126 0 5.98 C 0 5.14 0.475 4.372 1.226 3.996 L 8.59 0.314 C 9.428 -0.105 10.414 -0.105 11.252 0.314 L 18.615 3.996 C 19.367 4.372 19.841 5.14 19.841 5.98 Z M 13.889 14.151 L 15.873 14.151 L 15.873 8.198 L 13.889 8.198 Z M 5.952 8.198 L 3.968 8.198 L 3.968 14.151 L 5.952 14.151 Z M 11.905 14.151 L 11.905 8.198 L 7.937 8.198 L 7.937 14.151 Z" fill="var(--token-d2217a24-aca4-4d62-b268-5325af45edfe, rgb(242, 0, 202)) /* {&quot;name&quot;:&quot;Accent Magenta&quot;} */"/></svg>