<svg viewBox="0 0 20 17" id="svg9536001823"><path d="M 4.1 1.7 C 2.719 1.7 1.6 2.819 1.6 4.2 L 1.6 5.867 L 18.267 5.867 L 18.267 4.2 C 18.267 2.819 17.147 1.7 15.767 1.7 Z" fill="var(--token-6bd54d18-2f9d-4c99-9127-40c6f1093cd7, rgb(0, 152, 242)) /* {&quot;name&quot;:&quot;Accent Blue&quot;} */"/><path d="M 1.6 12.533 L 1.6 7.533 L 18.267 7.533 L 18.267 12.533 C 18.267 13.914 17.147 15.033 15.767 15.033 L 4.1 15.033 C 2.719 15.033 1.6 13.914 1.6 12.533 Z M 5.767 9.2 C 5.306 9.2 4.933 9.573 4.933 10.033 C 4.933 10.494 5.306 10.867 5.767 10.867 L 8.267 10.867 C 8.727 10.867 9.1 10.494 9.1 10.033 C 9.1 9.573 8.727 9.2 8.267 9.2 Z" fill="var(--token-6bd54d18-2f9d-4c99-9127-40c6f1093cd7, rgb(0, 152, 242)) /* {&quot;name&quot;:&quot;Accent Blue&quot;} */"/></svg>