<svg viewBox="0 0 19.902 19.385" overflow="visible" id="svg2142159840_1415"><path d="M 10.781 1.165 C 10.421 0.784 10.139 0.692 9.951 0.692 C 9.761 0.692 9.481 0.784 9.121 1.165 C 8.757 1.549 8.385 2.157 8.051 2.993 C 7.469 4.446 7.064 6.436 6.971 8.693 L 12.93 8.693 C 12.837 6.436 12.432 4.446 11.85 2.993 C 11.516 2.157 11.144 1.549 10.78 1.165 Z M 12.93 10.693 L 6.971 10.693 C 7.064 12.949 7.469 14.938 8.051 16.392 C 8.385 17.227 8.757 17.836 9.121 18.219 C 9.481 18.601 9.761 18.692 9.951 18.692 C 10.139 18.692 10.421 18.601 10.781 18.219 C 11.144 17.836 11.516 17.227 11.851 16.392 C 12.431 14.938 12.837 12.949 12.93 10.692 Z M 4.969 8.693 C 5.064 6.225 5.504 3.974 6.194 2.25 C 6.542 1.38 6.969 0.603 7.48 0 C 3.409 1.04 0.422 4.512 0 8.692 L 4.97 8.692 Z M 0 10.693 L 4.97 10.693 C 5.064 13.159 5.504 15.411 6.194 17.135 C 6.542 18.005 6.969 18.781 7.48 19.385 C 3.409 18.345 0.421 14.873 0 10.692 Z M 14.932 10.693 L 19.902 10.693 C 19.48 14.873 16.492 18.345 12.421 19.385 C 12.931 18.781 13.359 18.005 13.707 17.135 C 14.397 15.411 14.837 13.159 14.932 10.692 Z M 19.901 8.693 C 19.48 4.512 16.492 1.04 12.421 0 C 12.931 0.603 13.359 1.38 13.707 2.25 C 14.397 3.974 14.837 6.225 14.932 8.692 L 19.902 8.692 Z" fill="var(--token-f016e72d-c52d-4bd6-b50c-00013d1c9300, rgb(255, 99, 99)) /* {&quot;name&quot;:&quot;Accent Red&quot;} */"/></svg>