<svg viewBox="0 0 22 17" overflow="visible" id="svg87583696_756"><path d="M 2 3 C 2 1.343 3.343 0 5 0 L 11 0 C 12.657 0 14 1.343 14 3 L 14 15 L 15 15 L 15 4 L 17 4 C 18.657 4 20 5.343 20 7 L 20 15 L 21 15 C 21.552 15 22 15.448 22 16 C 22 16.552 21.552 17 21 17 L 1 17 C 0.448 17 0 16.552 0 16 C 0 15.448 0.448 15 1 15 L 2 15 Z M 7 7 L 9 7 C 9.552 7 10 6.552 10 6 C 10 5.448 9.552 5 9 5 L 7 5 C 6.448 5 6 5.448 6 6 C 6 6.552 6.448 7 7 7 Z M 7 11 L 9 11 C 9.552 11 10 10.552 10 10 C 10 9.448 9.552 9 9 9 L 7 9 C 6.448 9 6 9.448 6 10 C 6 10.552 6.448 11 7 11 Z" fill="var(--token-d2217a24-aca4-4d62-b268-5325af45edfe, rgb(242, 0, 202)) /* {&quot;name&quot;:&quot;Accent Magenta&quot;} */"/></svg>