<svg width="25" height="23" viewBox="-2 -2 25 23" fill="none" id="svg-1819490423_1103">
<path d="M6.25 8.33333V6.25H9.375V8.33333H6.25Z" fill="#00F23D"/>
<path fill-rule="evenodd" clip-rule="evenodd" d="M0 3.125C0 1.39911 1.39911 0 3.125 0H12.5C14.2259 0 15.625 1.39911 15.625 3.125V8.33333H17.7083C19.4342 8.33333 20.8333 9.73244 20.8333 11.4583V15.1042C20.8333 17.1177 19.201 18.75 17.1875 18.75H3.64583C1.63229 18.75 0 17.1177 0 15.1042V3.125ZM17.1875 16.6667C18.0504 16.6667 18.75 15.9671 18.75 15.1042V11.4583C18.75 10.883 18.2836 10.4167 17.7083 10.4167H15.625V15.1042C15.625 15.9671 16.3246 16.6667 17.1875 16.6667ZM4.16667 13.5417C4.16667 12.9664 4.63304 12.5 5.20833 12.5H10.4167C10.992 12.5 11.4583 12.9664 11.4583 13.5417C11.4583 14.117 10.992 14.5833 10.4167 14.5833H5.20833C4.63304 14.5833 4.16667 14.117 4.16667 13.5417ZM5.20833 4.16667C4.63304 4.16667 4.16667 4.63304 4.16667 5.20833V9.375C4.16667 9.9503 4.63304 10.4167 5.20833 10.4167H10.4167C10.992 10.4167 11.4583 9.9503 11.4583 9.375V5.20833C11.4583 4.63304 10.992 4.16667 10.4167 4.16667H5.20833Z" fill="#00F23D"/>
</svg>