<svg viewBox="0 0 40 40" id="svg10554983554"><path d="M 19.999 3.334 C 19.078 3.334 18.332 4.08 18.332 5.001 L 18.332 8.334 C 18.332 9.254 19.078 10.001 19.999 10.001 C 20.919 10.001 21.665 9.254 21.665 8.334 L 21.665 6.77 C 28.242 7.591 33.332 13.201 33.332 20.001 C 33.332 27.364 27.363 33.334 19.999 33.334 C 12.635 33.334 6.665 27.364 6.665 20.001 C 6.665 18.439 6.933 16.944 7.424 15.556 C 7.73 14.688 7.276 13.736 6.408 13.429 C 5.54 13.123 4.588 13.577 4.281 14.445 C 3.666 16.185 3.332 18.056 3.332 20.001 C 3.332 29.205 10.794 36.667 19.999 36.667 C 29.203 36.667 36.665 29.205 36.665 20.001 C 36.665 10.796 29.203 3.334 19.999 3.334 Z" fill="var(--token-6bd54d18-2f9d-4c99-9127-40c6f1093cd7, rgb(0, 152, 242)) /* {&quot;name&quot;:&quot;Accent Blue&quot;} */"/><path d="M 8.404 8.405 C 9.054 7.755 10.11 7.755 10.761 8.405 L 17.224 14.868 C 18.049 14.421 18.994 14.167 19.999 14.167 C 23.22 14.167 25.832 16.779 25.832 20.001 C 25.832 23.222 23.22 25.834 19.999 25.834 C 16.777 25.834 14.165 23.222 14.165 20.001 C 14.165 18.996 14.419 18.051 14.867 17.226 L 8.404 10.762 C 7.753 10.112 7.753 9.056 8.404 8.405 Z" fill="var(--token-6bd54d18-2f9d-4c99-9127-40c6f1093cd7, rgb(0, 152, 242)) /* {&quot;name&quot;:&quot;Accent Blue&quot;} */"/></svg>