<svg viewBox="0 0 20 20" id="svg11068667458"><path d="M 9.74 11.635 L 7.759 11.139 L 9.921 14.112 L 12.083 11.139 L 10.101 11.635 C 9.983 11.664 9.859 11.664 9.74 11.635 Z" fill="var(--token-74e49f34-cb14-4f31-a73b-464c2c98f789, rgb(108, 86, 252)) /* {&quot;name&quot;:&quot;Accent Purple&quot;} */"/><path d="M 9.921 10.146 L 12.638 9.466 L 9.921 5.729 L 7.203 9.466 Z" fill="var(--token-74e49f34-cb14-4f31-a73b-464c2c98f789, rgb(108, 86, 252)) /* {&quot;name&quot;:&quot;Accent Purple&quot;} */"/><path d="M 0 9.921 C 0 4.442 4.442 0 9.921 0 C 15.4 0 19.841 4.442 19.841 9.921 C 19.841 15.4 15.4 19.841 9.921 19.841 C 4.442 19.841 0 15.4 0 9.921 Z M 10.522 4.027 C 10.382 3.834 10.159 3.72 9.921 3.72 C 9.683 3.72 9.459 3.834 9.319 4.027 L 5.351 9.483 C 5.161 9.744 5.161 10.097 5.351 10.358 L 9.319 15.815 C 9.459 16.007 9.683 16.121 9.921 16.121 C 10.159 16.121 10.382 16.007 10.522 15.815 L 14.491 10.358 C 14.68 10.097 14.68 9.744 14.491 9.483 Z" fill="var(--token-74e49f34-cb14-4f31-a73b-464c2c98f789, rgb(108, 86, 252)) /* {&quot;name&quot;:&quot;Accent Purple&quot;} */"/></svg>