<svg viewBox="0 0 20 20" overflow="visible" id="svg-1235216813_684"><path d="M 20 10 C 20 15.523 15.523 20 10 20 C 4.477 20 0 15.523 0 10 C 0 4.477 4.477 0 10 0 C 15.523 0 20 4.477 20 10 Z M 13.774 8.133 C 14.113 7.705 14.046 7.084 13.623 6.738 C 13.2 6.392 12.578 6.449 12.226 6.867 L 8.426 11.512 L 7.207 10.292 C 6.816 9.902 6.183 9.902 5.792 10.293 C 5.402 10.683 5.402 11.317 5.793 11.707 L 7.793 13.707 C 7.993 13.907 8.268 14.013 8.55 13.999 C 8.832 13.984 9.095 13.852 9.274 13.633 Z" fill="var(--token-6bd54d18-2f9d-4c99-9127-40c6f1093cd7, rgb(0, 152, 242)) /* {&quot;name&quot;:&quot;Accent Blue&quot;} */"/></svg>