<svg viewBox="0 0 21.641 19" overflow="visible" id="svg-1554640489_1587"><g><path d="M 6.956 11 C 7.756 11 8.527 11.137 9.244 11.385 L 8.069 15.5 L 5.955 15.5 C 5.112 15.501 4.327 15.926 3.865 16.632 C 3.404 17.337 3.329 18.227 3.666 19 L 0.956 19 C 0.404 19 -0.049 18.55 0.004 18.001 C 0.364 14.258 2.752 11.001 6.956 11 Z" fill="var(--token-6bd54d18-2f9d-4c99-9127-40c6f1093cd7, rgb(0, 152, 242)) /* {&quot;name&quot;:&quot;Accent Blue&quot;} */"/><path d="M 19.541 10 C 20.177 10 20.779 10.288 21.177 10.784 C 21.576 11.279 21.728 11.929 21.592 12.55 L 21.56 12.677 L 20.168 17.55 C 19.922 18.408 19.138 19 18.245 19 L 6 19 C 5.448 19 5 18.552 5 18 C 5 17.448 5.448 17 6 17 L 9.245 17 L 10.728 11.813 L 10.793 11.616 C 11.161 10.643 12.092 10 13.132 10 L 19.542 10 Z M 7.5 1.5 C 9.709 1.5 11.5 3.291 11.5 5.5 C 11.5 7.709 9.709 9.5 7.5 9.5 C 5.291 9.5 3.5 7.709 3.5 5.5 C 3.5 3.291 5.291 1.5 7.5 1.5 Z M 17.5 0 C 17.748 0 17.957 0.186 17.985 0.433 C 18.156 1.949 19.015 2.877 20.555 3.013 C 20.809 3.033 21.005 3.245 21.004 3.5 C 21.004 3.755 20.808 3.966 20.554 3.986 C 19.037 4.118 18.117 5.037 17.986 6.555 C 17.963 6.806 17.752 6.999 17.5 6.999 C 17.248 6.999 17.037 6.806 17.014 6.555 C 16.877 5.017 15.949 4.156 14.433 3.985 C 14.186 3.958 13.999 3.749 13.999 3.5 C 13.998 3.252 14.185 3.043 14.432 3.015 C 15.97 2.838 16.838 1.97 17.015 0.432 C 17.043 0.186 17.252 0 17.5 0 Z" fill="var(--token-6bd54d18-2f9d-4c99-9127-40c6f1093cd7, rgb(0, 152, 242)) /* {&quot;name&quot;:&quot;Accent Blue&quot;} */"/></g></svg>