<svg viewBox="0 0 22.422 18" overflow="visible" id="svg630719907_940"><path d="M 2.711 4 C 2.711 1.791 4.502 0 6.711 0 C 8.92 0 10.711 1.791 10.711 4 C 10.711 6.209 8.92 8 6.711 8 C 4.502 8 2.711 6.209 2.711 4 Z M 11.711 4 C 11.711 1.791 13.502 0 15.711 0 C 17.92 0 19.711 1.791 19.711 4 C 19.711 6.209 17.92 8 15.711 8 C 13.502 8 11.711 6.209 11.711 4 Z M 6.711 9 C 9.581 9 12.305 10.98 13.318 14.613 C 13.848 16.513 12.228 18 10.565 18 L 2.857 18 C 1.194 18 -0.428 16.513 0.102 14.613 C 1.117 10.981 3.84 9 6.712 9 Z M 15.245 14.076 C 14.758 12.328 13.919 10.849 12.841 9.702 C 13.728 9.241 14.712 9 15.711 9 C 18.582 9 21.305 10.98 22.319 14.613 C 22.849 16.513 21.229 18 19.566 18 L 14.542 18 C 15.376 16.873 15.636 15.422 15.245 14.076 Z" fill="var(--token-74e49f34-cb14-4f31-a73b-464c2c98f789, rgb(108, 86, 252)) /* {&quot;name&quot;:&quot;Accent Purple&quot;} */"/></svg>