<svg width="112" height="40" viewBox="0 0 112 40" fill="none" id="svg-1993719998_4777">
<path d="M11.2923 12C11.5132 12 11.6923 12.1791 11.6923 12.4V15.2923C11.6923 15.5132 11.5132 15.6923 11.2923 15.6923H8C5.62092 15.6923 3.69231 17.6209 3.69231 19.9999C3.69231 22.379 5.62092 24.3076 8 24.3076H11.2923C11.5132 24.3076 11.6923 24.4867 11.6923 24.7076V27.5999C11.6923 27.8208 11.5132 27.9999 11.2923 27.9999H8C3.58172 27.9999 0 24.4182 0 19.9999C0 15.5817 3.58172 12 8 12H11.2923Z" fill="black" fill-opacity="0.9"/>
<path d="M24 15.6923H20.7077C20.4868 15.6923 20.3077 15.5132 20.3077 15.2923V12.4C20.3077 12.1791 20.4868 12 20.7077 12H24C28.4183 12 32 15.5817 32 19.9999C32 24.4182 28.4183 27.9999 24 27.9999H20.7077C20.4868 27.9999 20.3077 27.8208 20.3077 27.5999V24.7076C20.3077 24.4867 20.4868 24.3076 20.7077 24.3076H24C26.3791 24.3076 28.3077 22.379 28.3077 19.9999C28.3077 17.6209 26.3791 15.6923 24 15.6923Z" fill="black" fill-opacity="0.9"/>
<path d="M17.8461 12.4C17.8461 12.1791 17.6671 12 17.4461 12H14.5538C14.3329 12 14.1538 12.1791 14.1538 12.4V17.7538C14.1538 17.9747 13.9748 18.1538 13.7538 18.1538H8C6.98039 18.1538 6.15384 18.9803 6.15384 19.9999C6.15384 21.0195 6.9804 21.8461 8 21.8461H13.7538C13.9748 21.8461 14.1538 22.0252 14.1538 22.2461V27.5999C14.1538 27.8208 14.3329 27.9999 14.5538 27.9999H17.4461C17.6671 27.9999 17.8461 27.8208 17.8461 27.5999V22.2461C17.8461 22.0252 18.0252 21.8461 18.2461 21.8461H24C25.0196 21.8461 25.8461 21.0195 25.8461 19.9999C25.8461 18.9803 25.0196 18.1538 24 18.1538L18.2461 18.1538C18.0252 18.1538 17.8461 17.9747 17.8461 17.7538V12.4Z" fill="black" fill-opacity="0.9"/>
<path fill-rule="evenodd" clip-rule="evenodd" d="M41.9212 12L36 27.8739H39.1496L40.2834 24.5983H46.3307L47.4645 27.8739H50.6141L44.6929 12H41.9212ZM43.3071 16.0315L45.3228 21.8267H41.2913L43.3071 16.0315Z" fill="black" fill-opacity="0.9"/>
<path d="M106.563 23.8424V12H109.46V23.7164C109.46 24.7243 110.09 25.3542 111.098 25.3542C111.375 25.3542 111.527 25.329 111.653 25.3038L111.854 25.2282V27.7479C111.728 27.7983 111.602 27.8487 111.451 27.8739C111.174 27.9495 110.846 27.9999 110.468 27.9999C108.175 27.9999 106.563 26.3621 106.563 23.8424Z" fill="black" fill-opacity="0.9"/>
<path fill-rule="evenodd" clip-rule="evenodd" d="M102.653 27.8738L102.15 26.74C101.872 26.9668 101.595 27.1935 101.268 27.3699C100.688 27.6975 99.8818 27.9998 98.8739 27.9998C95.9763 27.9998 93.4566 25.5053 93.4566 22.0786C93.4566 18.6519 95.9763 16.1574 98.8739 16.1574C99.8818 16.1574 100.688 16.4849 101.268 16.7873C101.595 16.9637 101.872 17.1905 102.15 17.4172L102.653 16.2834H104.795V27.8738H102.653ZM99.2519 25.2282C100.89 25.2282 102.15 23.9935 102.15 22.0786C102.15 20.1637 100.89 18.929 99.2519 18.929C97.6141 18.929 96.3542 20.1637 96.3542 22.0786C96.3542 23.9935 97.6141 25.2282 99.2519 25.2282Z" fill="black" fill-opacity="0.9"/>
<path d="M81.7332 16.2836V23.0867C81.7332 26.1103 83.6481 28 86.3946 28C87.3269 28 88.1584 27.6976 88.7379 27.3701C89.0654 27.1937 89.393 26.9669 89.6702 26.7402L90.1741 27.874H92.3158V16.2836H89.4182V22.7087C89.4182 24.2205 88.4355 25.2284 87.0245 25.2284C85.6135 25.2284 84.6308 24.2205 84.6308 22.7087V16.2836H81.7332Z" fill="black" fill-opacity="0.9"/>
<path d="M74.9368 23.8423V18.929H73.173V16.5353H73.9289C74.8612 16.5353 75.3147 16.0818 75.3147 15.1495V13.5117H77.8344V16.2833H80.3541V18.929H77.8344V23.7164C77.8344 24.7242 78.4643 25.3541 79.4722 25.3541C79.7494 25.3541 79.9006 25.3289 80.0265 25.3037L80.2281 25.2282V27.7478C80.1021 27.7982 79.9762 27.8486 79.825 27.8738C79.5478 27.9494 79.2202 27.9998 78.8423 27.9998C76.5494 27.9998 74.9368 26.362 74.9368 23.8423Z" fill="black" fill-opacity="0.9"/>
<path d="M73.0473 23.5904H70.1497C70.0237 23.918 69.8221 24.1951 69.5954 24.4219C69.1922 24.825 68.5623 25.2282 67.63 25.2282C65.9922 25.2282 64.7324 23.9935 64.7324 22.0786C64.7324 20.1637 65.9922 18.929 67.63 18.929C68.5623 18.929 69.1922 19.3574 69.5954 19.7605C69.8221 19.9873 70.0237 20.2644 70.1497 20.5668H73.0473C72.5182 18.2739 70.4017 16.1574 67.63 16.1574C64.5056 16.1574 61.8347 18.803 61.8347 22.0786C61.8347 25.3542 64.5056 27.9998 67.63 27.9998C70.4017 27.9998 72.5182 25.8833 73.0473 23.5904Z" fill="black" fill-opacity="0.9"/>
<path d="M58.5591 23.5904H61.4567C60.9276 25.8833 58.811 27.9998 56.0394 27.9998C52.915 27.9998 50.2441 25.3542 50.2441 22.0786C50.2441 18.803 52.915 16.1574 56.0394 16.1574C58.811 16.1574 60.9276 18.2739 61.4567 20.5668H58.5591C58.4331 20.2644 58.2315 19.9873 58.0047 19.7605C57.6016 19.3574 56.9717 18.929 56.0394 18.929C54.4016 18.929 53.1418 20.1637 53.1418 22.0786C53.1418 23.9935 54.4016 25.2282 56.0394 25.2282C56.9717 25.2282 57.6016 24.825 58.0047 24.4219C58.2315 24.1951 58.4331 23.918 58.5591 23.5904Z" fill="black" fill-opacity="0.9"/>
</svg>