<svg viewBox="0 0 40 40" id="svg11187565892"><path d="M 36.333 19.667 C 36.333 28.871 28.871 36.333 19.667 36.333 C 10.462 36.333 3 28.871 3 19.667 C 3 10.462 10.462 3 19.667 3 C 28.871 3 36.333 10.462 36.333 19.667 Z M 21.213 15.8 C 21.365 16.4 21.17 17.052 20.412 17.431 C 18.934 18.17 18 19.681 18 21.333 C 18 22.254 18.746 23 19.667 23 C 20.587 23 21.333 22.254 21.333 21.333 C 21.333 20.943 21.554 20.586 21.903 20.412 C 24.183 19.272 24.946 16.963 24.444 14.982 C 23.945 13.011 22.191 11.333 19.667 11.333 C 17.771 11.333 16.124 12.389 15.278 13.936 C 14.836 14.744 15.133 15.757 15.94 16.198 C 16.748 16.64 17.761 16.343 18.202 15.536 C 18.488 15.014 19.038 14.667 19.667 14.667 C 20.547 14.667 21.058 15.19 21.213 15.8 Z M 19.667 28 C 20.587 28 21.333 27.254 21.333 26.333 C 21.333 25.413 20.587 24.667 19.667 24.667 C 18.746 24.667 18 25.413 18 26.333 C 18 27.254 18.746 28 19.667 28 Z" fill="var(--token-74e49f34-cb14-4f31-a73b-464c2c98f789, rgb(108, 86, 252)) /* {&quot;name&quot;:&quot;Accent Purple&quot;} */"/></svg>