<svg viewBox="0 0 24 24" overflow="visible" id="svg1709296677_2844"><path d="M 12 0 C 18.628 0 24 5.372 24 12 C 24 18.627 18.627 24 12 24 C 5.372 24 0 18.627 0 12 C 0 5.372 5.372 0 12 0 Z M 12.084 9.727 C 11.173 9.148 9.972 9.18 9.093 9.807 C 8.375 10.317 7.96 11.154 7.96 12.015 C 7.96 12.231 7.987 12.449 8.04 12.664 C 8.311 13.731 9.227 14.539 10.319 14.673 C 10.644 14.712 10.96 14.695 11.285 14.609 C 11.567 14.54 11.838 14.427 12.088 14.266 C 12.348 14.099 12.565 13.878 12.776 13.614 C 12.78 13.609 12.784 13.605 12.788 13.6 C 12.934 13.418 12.907 13.159 12.747 13.036 C 12.612 12.932 12.384 12.89 12.206 13.119 C 12.168 13.175 12.124 13.231 12.078 13.287 C 11.936 13.444 11.759 13.597 11.548 13.715 C 11.278 13.859 10.972 13.941 10.647 13.943 C 9.581 13.931 9.011 13.186 8.808 12.654 C 8.773 12.555 8.746 12.451 8.727 12.345 L 8.721 12.289 L 12.545 12.289 C 13.069 12.277 13.35 11.906 13.273 11.483 L 13.273 11.485 C 13.116 10.737 12.706 10.121 12.084 9.727 Z M 15.977 11.996 C 15.977 13.479 17.183 14.686 18.663 14.686 C 20.144 14.686 21.349 13.48 21.35 11.997 C 21.35 10.514 20.144 9.307 18.663 9.307 C 17.182 9.307 15.978 10.513 15.977 11.996 Z M 7.631 9.319 C 7.532 9.319 7.439 9.358 7.37 9.429 L 5.327 11.474 L 3.276 9.425 C 3.207 9.357 3.116 9.319 3.019 9.319 C 2.816 9.319 2.652 9.484 2.651 9.685 C 2.651 9.784 2.691 9.878 2.762 9.947 L 4.806 11.994 L 2.763 14.042 C 2.691 14.113 2.651 14.206 2.651 14.305 C 2.651 14.507 2.816 14.672 3.019 14.672 C 3.116 14.672 3.207 14.634 3.276 14.564 L 5.325 12.516 L 7.365 14.557 C 7.438 14.631 7.531 14.672 7.631 14.672 C 7.832 14.672 7.996 14.507 7.996 14.305 C 7.996 14.207 7.959 14.115 7.89 14.046 L 5.848 11.996 L 7.892 9.943 C 7.959 9.875 7.997 9.783 7.997 9.686 C 7.997 9.484 7.833 9.32 7.631 9.319 Z M 15.675 9.352 C 15.336 9.353 15.01 9.459 14.737 9.67 C 14.7 9.507 14.553 9.382 14.378 9.382 C 14.177 9.382 14.016 9.545 14.016 9.747 L 14.017 14.277 C 14.017 14.478 14.182 14.642 14.382 14.643 C 14.583 14.643 14.748 14.478 14.748 14.276 L 14.748 11.49 C 14.748 10.562 14.834 10.187 15.627 10.088 C 15.702 10.079 15.781 10.08 15.782 10.08 C 15.999 10.072 16.153 9.922 16.153 9.72 C 16.153 9.517 15.988 9.353 15.785 9.353 L 15.787 9.352 Z M 18.663 10.065 C 19.724 10.065 20.591 10.932 20.591 11.996 C 20.591 13.06 19.725 13.927 18.663 13.927 C 17.6 13.927 16.736 13.061 16.736 11.996 C 16.736 10.932 17.6 10.066 18.663 10.065 Z M 18.663 11.33 C 18.297 11.33 17.999 11.628 17.999 11.996 L 17.997 11.996 C 17.997 12.364 18.296 12.663 18.664 12.663 C 19.03 12.663 19.328 12.364 19.328 11.996 C 19.328 11.628 19.029 11.33 18.663 11.33 Z M 10.637 10.059 C 11.554 10.059 12.322 10.695 12.524 11.553 L 8.755 11.553 C 8.755 11.543 8.755 11.533 8.756 11.523 C 8.968 10.681 9.731 10.059 10.637 10.059 Z" fill="rgb(26,180,215)"/></svg>