<svg viewBox="0 0 21 17" id="svg12366107420"><path d="M 1.68 3.548 C 1.68 2.34 2.657 1.36 3.866 1.36 L 17.43 1.36 L 17.43 3.985 L 19.18 3.985 L 19.18 15.36 L 4.305 15.36 C 2.855 15.36 1.68 14.185 1.68 12.735 Z M 3.43 3.548 C 3.43 3.789 3.626 3.985 3.868 3.985 L 15.68 3.985 L 15.68 3.11 L 3.866 3.11 C 3.626 3.11 3.43 3.305 3.43 3.548 Z M 14.368 10.985 C 15.092 10.985 15.68 10.397 15.68 9.672 C 15.68 8.948 15.092 8.36 14.368 8.36 C 13.643 8.36 13.055 8.948 13.055 9.672 C 13.055 10.397 13.643 10.985 14.368 10.985 Z" fill="var(--token-6bd54d18-2f9d-4c99-9127-40c6f1093cd7, rgb(0, 152, 242)) /* {&quot;name&quot;:&quot;Accent Blue&quot;} */"/></svg>