<svg viewBox="0 0 40 40" id="svg9528390102"><path d="M 6.419 31.384 C 5.49 29.984 5 28.297 5 26.333 C 5.75 21.083 9.201 17.182 12.922 13.417 L 27.253 13.417 C 30.734 17.109 34.243 21.033 35 26.333 C 35 28.297 34.51 29.984 33.581 31.384 C 32.659 32.774 31.371 33.782 29.924 34.504 C 27.078 35.925 23.431 36.333 20 36.333 C 16.569 36.333 12.922 35.925 10.076 34.504 C 8.629 33.782 7.341 32.774 6.419 31.384 Z" fill="var(--token-d2217a24-aca4-4d62-b268-5325af45edfe, rgb(242, 0, 202)) /* {&quot;name&quot;:&quot;Accent Magenta&quot;} */"/><path d="M 26.502 8.213 C 27.201 6.349 26.492 4.181 24.582 3.618 C 23.159 3.199 21.629 3 20 3 C 18.371 3 16.841 3.199 15.418 3.618 C 13.508 4.181 12.799 6.349 13.498 8.213 L 14.504 10.894 L 14.444 10.917 L 25.556 10.917 L 25.496 10.894 Z" fill="var(--token-d2217a24-aca4-4d62-b268-5325af45edfe, rgb(242, 0, 202)) /* {&quot;name&quot;:&quot;Accent Magenta&quot;} */"/></svg>