<svg viewBox="0 0 24 24.001" overflow="visible" id="svg-923764843_1829"><path d="M 10.714 23.961 C 5.169 23.36 0.779 19.032 0.062 13.459 C -0.021 12.814 -0.021 11.201 0.062 10.555 C 0.586 6.48 3.019 3.055 6.682 1.238 C 9.587 -0.204 13.099 -0.398 16.129 0.717 C 19.994 2.138 22.859 5.427 23.755 9.473 C 24.082 10.946 24.082 13.068 23.755 14.542 C 22.955 18.153 20.589 21.18 17.319 22.777 C 16.156 23.345 15.213 23.649 13.937 23.866 C 13.196 23.992 11.471 24.043 10.714 23.961 Z M 11.454 13.142 L 11.454 7.202 L 9.842 7.182 C 7.996 7.162 7.446 7.21 6.738 7.446 C 5.185 7.96 4.04 9.193 3.63 10.789 C 3.464 11.437 3.44 12.406 3.576 13.019 C 3.941 14.675 5.128 16.002 6.742 16.562 C 7.228 16.73 7.348 16.75 7.98 16.771 L 8.68 16.793 L 8.68 15.949 L 8.68 15.105 L 8.139 15.079 C 7.278 15.037 6.672 14.769 6.065 14.161 C 5.33 13.425 5.04 12.367 5.271 11.274 C 5.457 10.397 6.065 9.632 6.884 9.242 C 7.487 8.956 7.734 8.914 8.815 8.914 L 9.737 8.914 L 9.737 13.974 C 9.737 16.757 9.753 19.05 9.773 19.07 C 9.793 19.09 10.18 19.1 10.632 19.092 L 11.454 19.072 L 11.454 13.132 Z M 16.446 16.729 C 18.094 16.462 19.533 15.349 20.125 13.883 C 20.399 13.205 20.475 12.796 20.48 11.981 C 20.483 11.342 20.464 11.142 20.364 10.77 C 19.984 9.359 19.059 8.242 17.76 7.626 C 17.129 7.326 16.71 7.225 15.956 7.191 L 15.281 7.161 L 15.296 8.027 L 15.31 8.893 L 15.918 8.925 C 16.572 8.959 16.824 9.029 17.26 9.296 C 17.905 9.691 18.387 10.262 18.626 10.912 C 18.779 11.331 18.816 12.301 18.696 12.778 C 18.481 13.632 17.918 14.331 17.129 14.721 C 16.555 15.006 16.07 15.092 15.033 15.094 L 14.227 15.096 L 14.227 10.001 L 14.227 4.906 L 13.356 4.906 L 12.484 4.906 L 12.484 10.846 L 12.484 16.786 L 14.293 16.786 C 15.306 16.786 16.254 16.761 16.446 16.729 Z" fill="rgb(82,159,54)"/></svg>