<svg viewBox="0 0 17.281 20" overflow="visible" id="svg1869312246_1290"><g><path d="M 0 3 C 0 1.343 1.343 0 3 0 L 13 0 C 14.657 0 16 1.343 16 3 L 16 9.878 C 14.362 9.388 12.587 9.837 11.379 11.046 L 7.879 14.546 C 7.317 15.108 7 15.871 7 16.666 L 7 19 C 7 19.35 7.06 19.687 7.17 20 L 3 20 C 1.343 20 0 18.657 0 17 Z M 5 6 L 11 6 C 11.552 6 12 5.552 12 5 C 12 4.448 11.552 4 11 4 L 5 4 C 4.448 4 4 4.448 4 5 C 4 5.552 4.448 6 5 6 Z M 5 8 C 4.448 8 4 8.448 4 9 C 4 9.552 4.448 10 5 10 L 7 10 C 7.552 10 8 9.552 8 9 C 8 8.448 7.552 8 7 8 Z" fill="var(--token-9714566a-e812-4579-9881-c71cf15e4de7, rgb(93, 156, 6)) /* {&quot;name&quot;:&quot;Accent Green&quot;} */"/><path d="M 15.126 13.654 C 15.38 13.908 15.38 14.319 15.126 14.573 L 11.92 17.781 L 11 17.781 L 11 16.861 L 14.207 13.655 C 14.461 13.401 14.872 13.401 15.126 13.655 Z M 9.293 15.741 C 9.105 15.929 9 16.183 9 16.448 L 9 18.781 C 9 19.333 9.448 19.781 10 19.781 L 12.333 19.781 C 12.598 19.781 12.853 19.676 13.04 19.488 L 16.54 15.988 C 17.542 14.948 17.526 13.297 16.505 12.276 C 15.484 11.255 13.833 11.239 12.793 12.241 Z" fill="var(--token-9714566a-e812-4579-9881-c71cf15e4de7, rgb(93, 156, 6)) /* {&quot;name&quot;:&quot;Accent Green&quot;} */"/></g></svg>