<svg width="112" height="16" fill="none" id="svg462370271_2587"><g fill="#000" fill-opacity=".9"><path d="M11.292 0a.4.4 0 0 1 .4.4v2.892a.4.4 0 0 1-.4.4H8a4.308 4.308 0 1 0 0 8.616h3.292a.4.4 0 0 1 .4.4V15.6a.4.4 0 0 1-.4.4H8A8 8 0 1 1 8 0h3.292ZM24 3.692h-3.292a.4.4 0 0 1-.4-.4V.4a.4.4 0 0 1 .4-.4H24a8 8 0 1 1 0 16h-3.292a.4.4 0 0 1-.4-.4v-2.892a.4.4 0 0 1 .4-.4H24a4.308 4.308 0 1 0 0-8.616Z"/><path d="M17.846.4a.4.4 0 0 0-.4-.4h-2.892a.4.4 0 0 0-.4.4v5.354a.4.4 0 0 1-.4.4H8a1.846 1.846 0 1 0 0 3.692h5.754a.4.4 0 0 1 .4.4V15.6c0 .22.179.4.4.4h2.892a.4.4 0 0 0 .4-.4v-5.354c0-.22.18-.4.4-.4H24a1.846 1.846 0 0 0 0-3.692h-5.754a.4.4 0 0 1-.4-.4V.4Z"/><path fill-rule="evenodd" clip-rule="evenodd" d="M41.921 0 36 15.874h3.15l1.133-3.276h6.048l1.133 3.276h3.15L44.693 0H41.92Zm1.386 4.031 2.016 5.796H41.29l2.016-5.796Z"/><path d="M106.563 11.842V0h2.897v11.716c0 1.008.63 1.638 1.638 1.638.277 0 .429-.025.555-.05l.201-.076v2.52c-.126.05-.252.1-.403.126a3.727 3.727 0 0 1-.983.126c-2.293 0-3.905-1.638-3.905-4.158Z"/><path fill-rule="evenodd" clip-rule="evenodd" d="m102.653 15.874-.503-1.134c-.278.227-.555.454-.882.63-.58.328-1.386.63-2.394.63-2.898 0-5.417-2.495-5.417-5.921 0-3.427 2.52-5.922 5.417-5.922 1.008 0 1.814.328 2.394.63.327.177.604.403.882.63l.503-1.134h2.142v11.59h-2.142Zm-3.401-2.646c1.638 0 2.898-1.235 2.898-3.15 0-1.914-1.26-3.149-2.898-3.149-1.638 0-2.898 1.235-2.898 3.15 0 1.914 1.26 3.15 2.898 3.15Z"/><path d="M81.733 4.284v6.803c0 3.023 1.915 4.913 4.662 4.913a4.86 4.86 0 0 0 2.343-.63c.327-.176.655-.403.932-.63l.504 1.134h2.142V4.284h-2.898v6.425c0 1.511-.983 2.52-2.394 2.52-1.41 0-2.393-1.008-2.393-2.52V4.284h-2.898Zm-6.796 7.558V6.93h-1.764V4.535h.756c.932 0 1.386-.453 1.386-1.386V1.512h2.52v2.771h2.52V6.93h-2.52v4.787c0 1.008.63 1.638 1.637 1.638.277 0 .429-.025.555-.05l.201-.076v2.52c-.126.05-.252.1-.403.126a3.726 3.726 0 0 1-.983.126c-2.293 0-3.905-1.638-3.905-4.158Zm-1.89-.252H70.15a2.408 2.408 0 0 1-.555.832 2.695 2.695 0 0 1-1.965.806c-1.638 0-2.898-1.235-2.898-3.15 0-1.914 1.26-3.149 2.898-3.149.932 0 1.562.428 1.965.832.227.226.429.503.555.806h2.897c-.529-2.293-2.645-4.41-5.417-4.41-3.124 0-5.795 2.646-5.795 5.922 0 3.275 2.67 5.92 5.795 5.92 2.772 0 4.888-2.116 5.417-4.409Zm-14.487 0h2.897c-.53 2.293-2.646 4.41-5.418 4.41-3.124 0-5.795-2.646-5.795-5.921 0-3.276 2.671-5.922 5.795-5.922 2.772 0 4.889 2.117 5.418 4.41h-2.898a2.559 2.559 0 0 0-.554-.806c-.403-.404-1.033-.832-1.966-.832-1.637 0-2.897 1.235-2.897 3.15 0 1.914 1.26 3.15 2.897 3.15.933 0 1.563-.404 1.966-.807.226-.227.428-.504.554-.832Z"/></g></svg>