<svg viewBox="0 0 21 21" id="svg8708632248"><path d="M 20.833 6.279 C 20.833 7.482 19.921 8.473 18.75 8.595 L 18.75 15.243 C 19.426 15.613 19.958 16.229 20.213 16.995 L 20.323 17.325 C 20.773 18.674 19.768 20.067 18.346 20.067 L 2.487 20.067 C 1.065 20.067 0.061 18.674 0.51 17.325 L 0.62 16.995 C 0.876 16.229 1.408 15.613 2.083 15.243 L 2.083 8.595 C 0.913 8.473 0 7.482 0 6.279 C 0 5.397 0.498 4.59 1.288 4.196 L 9.019 0.33 C 9.899 -0.11 10.934 -0.11 11.814 0.33 L 19.546 4.196 C 20.335 4.59 20.833 5.397 20.833 6.279 Z M 14.583 14.858 L 16.667 14.858 L 16.667 8.608 L 14.583 8.608 Z M 6.25 8.608 L 4.167 8.608 L 4.167 14.858 L 6.25 14.858 Z M 12.5 14.858 L 12.5 8.608 L 8.333 8.608 L 8.333 14.858 Z" fill="var(--token-d2217a24-aca4-4d62-b268-5325af45edfe, rgb(242, 0, 202)) /* {&quot;name&quot;:&quot;Accent Magenta&quot;} */"/></svg>