<svg xmlns="http://www.w3.org/2000/svg" width="82" height="48" fill="none"><g fill="#B2B2B2" clip-path="url(#a)"><path d="M59.964 29.277c-.046 0-.093.026-.139.024-.045 0-.093.006-.139.006-.045 0-.09-.028-.136-.03-.045-.002-.09-.026-.136-.028s-.091-.017-.136-.02-.094.022-.14.02c-.045-.002-.088-.043-.134-.046-.045-.004-.093.022-.138.02-.045-.004-.093.015-.139.01-.045-.004-.093.01-.138.005-.045-.004-.082-.078-.128-.084-.045-.007-.093.015-.139.008-.045-.006-.088-.03-.134-.037-.045-.006-.093.005-.138-.002-.046-.006-.09-.02-.135-.028s-.086-.039-.13-.045c-.045-.009-.1.03-.142.021-.046-.008-.08-.069-.124-.08-.045-.008-.102.035-.145.024-.046-.01-.086-.037-.13-.048-.045-.01-.084-.036-.13-.05-.045-.01-.093-.002-.138-.015-.044-.01-.096 0-.139-.012-.043-.014-.082-.046-.126-.059-.043-.013-.097.006-.14-.007s-.06-.112-.102-.125c-.043-.015-.09-.018-.135-.033-.043-.015-.103.02-.147.005-.043-.015-.066-.083-.108-.1-.043-.017-.1.005-.143-.013s-.088-.024-.132-.041c-.043-.017-.082-.043-.123-.063s-.074-.058-.115-.078-.071-.06-.113-.082c-.04-.022-.101-.002-.14-.024l-.122-.065c-.04-.021-.084-.037-.125-.058-.04-.024-.046-.104-.082-.128-.04-.024-.104-.004-.143-.03-.04-.026-.059-.076-.098-.102l-.11-.08c-.037-.028-.063-.067-.1-.095-.037-.029-.115-.005-.15-.033s-.034-.1-.069-.13c-.034-.03-.075-.052-.108-.082-.034-.03-.073-.054-.106-.087l-.095-.1c-.033-.032-.054-.073-.085-.108l-.086-.104c-.028-.034-.093-.043-.121-.08-.029-.037.002-.114-.022-.151-.026-.037-.091-.048-.115-.087s-.054-.073-.078-.113c-.024-.038-.034-.084-.056-.125s-.076-.065-.095-.106c-.022-.046.004-.126-.035-.154a.35.35 0 0 0-.15-.052c-.01-.002-.025.017-.036.017-.044 0-.078.03-.115.05-.039.02-.097.015-.126.048-.028.037-.01.11-.04.145-.031.035-.092.046-.122.08-.03.035-.084.048-.115.082-.03.035-.026.102-.056.137-.03.034-.059.073-.09.106-.033.032-.07.063-.103.095-.032.033-.056.074-.089.106-.032.033-.11.018-.142.05-.035.032-.029.106-.063.137-.035.03-.091.036-.126.067-.035.03-.06.071-.095.1s-.1.023-.136.051-.061.072-.098.1-.056.078-.093.106q-.055.043-.108.087c-.037.025-.059.077-.098.103s-.114-.006-.154.02c-.038.026-.082.043-.119.067-.039.026-.058.08-.097.104s-.093.024-.132.048c-.04.023-.072.06-.11.084-.04.024-.068.07-.107.093-.04.022-.093.02-.134.041s-.07.065-.11.087l-.124.063c-.04.02-.095.015-.136.034s-.087.03-.13.048c-.041.02-.076.054-.12.071l-.127.055c-.043.017-.082.045-.125.06-.044.017-.076.065-.12.08-.043.015-.09.022-.134.037-.043.015-.095.007-.138.022s-.096.002-.141.015c-.043.013-.082.043-.128.056-.043.013-.082.046-.128.059-.045.01-.106-.041-.15-.03-.044.01-.073.088-.118.099-.046.01-.095-.004-.14.004s-.088.04-.133.048l-.136.024c-.046.008-.102-.046-.148-.04-.045.007-.086.033-.134.04-.045.006-.089.021-.136.028-.046.006-.085.071-.13.076-.046.004-.1-.065-.145-.06-.046.003-.087.064-.132.066-.046.005-.093-.008-.139-.006-.045.002-.093-.015-.139-.013-.045.002-.09.03-.136.03-.045.002-.093.009-.139.009-.045 0-.093.004-.138.004s-.091-.039-.136-.041c-.046 0-.094.05-.14.05-.045-.002-.092.002-.138 0-.045-.002-.09-.009-.136-.013-.046-.002-.089-.046-.134-.05s-.093.015-.139.01c-.045-.004-.087-.053-.132-.058-.046-.004-.095.022-.139.018-.045-.007-.095.023-.14.017-.046-.007-.09-.026-.135-.033l-.134-.023c-.045-.009-.084-.052-.128-.061-.045-.009-.084-.043-.127-.052-.046-.009-.096.01-.141.002-.045-.01-.082-.05-.126-.06-.043-.011-.09-.011-.134-.024-.043-.011-.09-.009-.136-.02-.044-.013-.083-.045-.126-.058s-.089-.02-.132-.033-.082-.037-.126-.052c-.043-.015-.1.009-.14-.006-.044-.015-.072-.072-.113-.087-.043-.015-.102.011-.143-.006-.043-.018-.093-.013-.134-.03q-.063-.026-.126-.055c-.04-.017-.088-.026-.13-.043-.04-.02-.078-.05-.119-.07l-.125-.056c-.041-.02-.057-.088-.098-.11-.04-.022-.097-.01-.136-.032-.041-.022-.067-.066-.108-.09-.04-.02-.091-.023-.13-.047s-.055-.089-.093-.113c-.04-.023-.1-.01-.139-.036-.039-.024-.085-.04-.121-.063-.04-.026-.06-.074-.098-.1-.037-.026-.102-.015-.138-.04-.037-.027-.05-.088-.087-.113q-.054-.045-.104-.09c-.037-.027-.1-.019-.136-.05-.035-.027-.03-.105-.065-.136-.035-.028-.063-.064-.098-.095-.034-.03-.09-.034-.125-.065-.035-.03-.063-.065-.098-.095-.032-.03-.104-.024-.136-.054-.033-.033-.022-.108-.054-.14-.033-.033-.106-.025-.139-.057-.032-.033-.039-.089-.071-.121-.03-.033-.035-.091-.065-.126s-.108-.026-.137-.06c-.03-.035-.065-.066-.095-.1-.03-.035-.032-.091-.063-.126-.028-.034-.078-.054-.106-.089l-.08-.11c-.028-.037-.034-.089-.06-.126q-.039-.055-.076-.112c-.026-.037-.026-.091-.052-.13-.026-.037-.085-.052-.11-.091-.027-.039-.048-.078-.072-.117s-.083-.056-.106-.095c-.024-.04-.013-.1-.037-.139s-.024-.09-.046-.132l-.065-.121-.067-.12c-.021-.04-.047-.077-.067-.118-.02-.042-.084-.061-.104-.102s-.015-.093-.034-.134-.048-.078-.068-.12c-.017-.04 0-.1-.017-.14s-.026-.087-.04-.13c-.018-.041-.098-.059-.116-.102-.017-.043-.023-.089-.04-.132-.016-.043.006-.1-.01-.143-.015-.043-.04-.082-.056-.126-.015-.043-.008-.093-.024-.136-.013-.043-.078-.071-.09-.115-.014-.043.03-.104.017-.147s-.085-.071-.096-.115c-.01-.043-.004-.093-.015-.136s.009-.095-.002-.14c-.01-.044-.035-.085-.045-.13-.011-.044-.007-.092-.016-.137-.008-.046-.047-.085-.056-.128-.008-.045-.039-.087-.047-.13-.01-.045.01-.095.004-.139-.007-.045.022-.095.015-.14s-.043-.087-.05-.13c-.006-.046.015-.093.011-.139l-.015-.136c-.004-.046-.07-.084-.074-.13s.068-.098.065-.143-.086-.084-.089-.13c-.002-.045.03-.093.029-.138-.002-.046-.013-.091-.016-.137-.002-.045-.032-.09-.032-.136-.002-.046.054-.093.052-.139 0-.045-.043-.09-.043-.136 0-.048.03-.098.03-.145 0-.048-.024-.098-.024-.145.002-.05-.024-.078-.047-.122-.024-.043-.007-.119-.05-.145a.34.34 0 0 0-.167-.052c-.043 0-.078.054-.12.074-.038.02-.073.056-.112.076l-.119.06c-.04.02-.086.024-.127.044s-.11-.026-.152-.007c-.041.02-.056.091-.098.108-.04.018-.09.016-.132.033-.04.017-.078.045-.119.063-.04.017-.067.073-.108.09s-.104-.012-.145.005-.07.067-.11.084c-.042.018-.091.016-.133.033-.04.017-.069.067-.11.084s-.087.026-.128.044c-.04.017-.097.002-.138.02-.041.017-.09.023-.13.04s-.091.018-.134.035c-.042.017-.074.058-.115.076s-.074.058-.117.076c-.041.017-.093.015-.134.032s-.07.065-.113.084c-.041.018-.095.01-.136.029s-.093.015-.135.032c-.04.02-.054.102-.095.12s-.115-.031-.156-.012c-.041.02-.054.096-.095.115s-.095.01-.137.03c-.04.02-.075.052-.114.074-.041.022-.104-.004-.145.017s-.067.067-.106.09c-.04.02-.076.051-.115.073s-.085.034-.124.058-.056.085-.093.108c-.039.024-.106.003-.143.026-.039.024-.056.078-.093.104s-.095.022-.132.05c-.037.026-.037.102-.074.13-.036.028-.097.024-.132.052-.034.028-.047.085-.082.115s-.1.024-.132.054-.07.06-.102.09c-.032.033-.032.096-.063.129-.03.032-.082.047-.112.08-.03.034-.028.095-.056.13-.029.034-.08.052-.106.088-.029.037-.048.076-.074.115-.026.037-.059.07-.082.108-.024.04-.083.057-.106.096s-.02.093-.042.134c-.021.039-.047.078-.067.12-.02.04.011.1-.006.144q-.027.06-.052.124c-.015.04-.072.069-.085.112-.013.044.005.096-.008.139s-.02.086-.03.132c-.011.043-.074.076-.083.121-.009.043.041.1.033.143-.007.043-.029.087-.035.132s-.067.084-.072.13.05.095.048.14-.056.09-.056.135c-.002.045.004.09.004.136s.03.091.03.137c.003.045.01.09.011.136.002.046-.006.091-.002.137.005.045-.004.09.002.136.005.046.024.089.03.134.007.046.052.085.061.128q.008.068.02.134c.008.046.023.087.032.132s.009.091.022.135c.01.043.03.084.043.128.013.043-.015.099-.002.142.013.044.022.09.037.133s.054.077.071.119c.017.043.056.073.074.116.017.042-.007.102.01.143.02.041.018.094.04.135.021.04.069.067.09.106.022.04.024.09.048.13.024.039.054.073.08.112s.065.067.091.104.048.078.076.115q.044.054.089.104c.03.035.082.05.112.082q.045.052.094.098c.032.032.036.095.069.123.035.03.065.067.1.095s.073.059.11.085.071.06.11.084.096.017.137.037c.039.02.084.035.11.07.026.034.007.086.017.127s.065.085.057.128c-.011.043-.024.102-.052.134-.026.033-.1.024-.139.041-.037.018-.076.009-.119.009-.07 0-.07.035-.136.035-.07 0-.07-.022-.137-.022-.069 0-.069-.022-.136-.022-.07 0-.07.067-.137.067-.069 0-.069-.054-.136-.054-.07 0-.07.05-.136.05-.07 0-.07-.035-.137-.035-.07 0-.069.013-.136.013-.07 0-.07.003-.137.003-.069 0-.069.03-.136.03-.07 0-.07-.007-.136-.007-.07 0-.07-.006-.137-.006-.07 0-.07.008-.136.008-.07 0-.07-.036-.137-.036-.069 0-.069-.003-.136-.003-.07 0-.07.011-.136.011-.07 0-.07.003-.137.003-.07 0-.07.01-.136.01-.07 0-.07.002-.137.002-.069 0-.069-.045-.136-.045-.07 0-.07-.009-.137-.009h-.136c-.07 0-.07.063-.136.063-.07 0-.07.01-.137.01-.07 0-.07-.049-.136-.049-.07 0-.07.02-.137.02-.069 0-.069.017-.136.017-.07 0-.07-.013-.136-.013-.068 0-.07-.046-.137-.046-.07 0-.07.059-.136.059-.07 0-.07.002-.137.002-.069 0-.069.015-.136.015-.07 0-.07-.078-.136-.078-.07 0-.07.046-.137.046-.07 0-.07.026-.136.026-.07 0-.07-.033-.137-.033-.07 0-.07.009-.136.009-.07 0-.07-.022-.137-.022-.069 0-.069.009-.136.009-.07 0-.07-.022-.136-.022-.07 0-.07.046-.137.046-.07 0-.07-.011-.136-.011-.07 0-.07-.046-.137-.046-.069 0-.069.01-.136.01-.07 0-.07-.014-.136-.014-.07 0-.07.007-.137.007-.07 0-.07.015-.136.015-.07 0-.07.028-.137.028-.069 0-.069-.022-.136-.022-.07 0-.07-.004-.137-.004-.069 0-.069.032-.136.032-.07 0-.07-.047-.136-.047-.07 0-.07-.013-.137-.013-.07 0-.07.017-.136.017-.07 0-.07.043-.137.043-.069 0-.069-.004-.136-.004-.07 0-.07-.054-.136-.054-.07 0-.07.035-.137.035-.07 0-.07.039-.136.039-.07 0-.07-.057-.137-.057-.069 0-.069.037-.136.037-.07 0-.07-.024-.137-.024-.069 0-.069.052-.136.052-.07 0-.07-.013-.136-.013-.07 0-.07-.04-.137-.04-.07 0-.07.049-.138.049-.07 0-.07-.076-.137-.076-.07 0-.07.005-.136.005-.07 0-.07.006-.137.006-.069 0-.069.054-.138.054-.07 0-.07-.002-.137-.002-.069 0-.069.02-.136.02-.07 0-.07-.044-.139-.044s-.069-.021-.138-.021c-.07 0-.07.04-.139.04s-.069-.008-.136-.008c-.07 0-.07.002-.139.002s-.069.017-.138.017c-.07 0-.07-.039-.139-.039-.07 0-.07.04-.139.04a.36.36 0 0 1-.166-.04.4.4 0 0 1-.12-.125.35.35 0 0 1-.027-.169c.002-.052.05-.097.08-.14a2 2 0 0 0 .073-.113c.022-.04.067-.067.087-.107.02-.038.004-.095.021-.136.016-.041.016-.087.029-.13.013-.041.02-.084.03-.128.01-.04.002-.086.01-.132.01-.043.096-.073.1-.119.007-.043-.069-.095-.064-.14.004-.044.036-.085.038-.13.003-.044-.015-.087-.015-.135l.003-.132c0-.045.036-.09.034-.136s-.052-.087-.058-.132l-.013-.135c-.007-.045-.003-.09-.011-.136-.009-.045.041-.104.028-.147-.01-.043-.084-.072-.098-.115-.012-.043-.038-.082-.056-.123-.015-.044-.034-.083-.052-.126-.017-.041.033-.115.013-.156s-.08-.063-.102-.104-.026-.09-.047-.13c-.024-.039-.098-.047-.121-.086-.024-.04.017-.121-.01-.158l-.08-.113c-.027-.037-.07-.06-.099-.095s-.045-.082-.076-.117c-.03-.035-.071-.06-.101-.093s-.067-.063-.1-.096c-.033-.032-.05-.082-.082-.112-.033-.03-.113-.01-.148-.041-.034-.03-.028-.108-.064-.137-.035-.028-.113-.004-.15-.032l-.108-.08c-.037-.026-.07-.059-.108-.083-.04-.025-.05-.09-.09-.114-.038-.024-.081-.041-.12-.065-.04-.024-.072-.059-.113-.08s-.108.01-.15-.011c-.04-.02-.051-.104-.093-.124-.04-.02-.112.029-.153.01-.041-.018-.076-.053-.12-.068-.043-.017-.07-.067-.114-.082-.043-.015-.085-.04-.128-.055s-.097.003-.14-.01-.08-.057-.124-.07c-.043-.01-.095.003-.139-.008-.043-.011-.082-.054-.127-.063-.046-.009-.1.035-.145.026-.046-.009-.093.009-.139.002s-.084-.06-.13-.065c-.045-.004-.093 0-.138-.002-.046-.004-.094.022-.14.02-.045-.003-.088-.046-.133-.048s-.091.028-.139.028c-.045 0-.093-.054-.139-.052-.045.002-.088.054-.134.056-.045.005-.089.03-.134.037s-.09.007-.136.013c-.046.007-.091.01-.135.022-.045.008-.084.034-.127.045-.046.011-.1-.015-.143-.002-.044.015-.102-.006-.143.009-.044.017-.07.078-.11.097-.042.02-.08.044-.122.063-.041.022-.063.074-.1.097s-.08.042-.116.067-.115 0-.15.029c-.037.028-.041.095-.074.125-.034.03-.106.024-.136.057-.032.032-.056.075-.087.11-.028.035.005.117-.023.154-.026.037-.065.063-.09.101-.023.04-.04.078-.062.12-.021.04-.032.082-.052.125-.017.041-.093.059-.11.102-.015.043.028.104.015.15-.013.043-.078.073-.089.116s.041.1.033.143c-.01.043-.1.076-.104.121-.005.044.065.096.062.141-.002.046-.026.089-.026.134s-.015.091-.013.137c.003.045.057.084.061.13.004.045-.058.097-.05.143.007.043.067.078.076.123.009.043.026.085.039.128.01.043-.039.104-.026.147s.015.091.03.134c.015.041.059.076.076.117s.063.07.082.11c.02.042.061.07.083.109.021.039-.018.113.006.151.024.04.096.046.122.085.026.037.067.06.093.097s.008.107.038.141c.029.035.066.063.096.098.03.032.07.056.102.088.03.033.038.09.071.122.033.03.063.065.098.095.034.028.112.002.149.03.035.028.058.07.095.096s.056.075.095.101c.037.024.091.024.13.048s.078.043.117.065c.04.021.054.09.096.112.038.02.1.007.125.042a.3.3 0 0 1 .063.12c.009.042-.035.083-.046.126-.01.044-.034.065-.06.098-.026.032-.022.106-.06.123s-.092-.013-.135-.013c-.07 0-.07-.01-.136-.01-.07 0-.07.023-.137.023h-.136c-.07 0-.07-.017-.137-.017s-.067-.017-.136-.017c-.067 0-.067.028-.137.028-.067 0-.067-.011-.136-.011-.07 0-.07.017-.136.017-.07 0-.07.035-.137.035-.07 0-.07-.067-.136-.067-.07 0-.07.067-.137.067-.069 0-.069-.06-.136-.06-.07 0-.07.032-.136.032-.07 0-.07.013-.137.013-.07 0-.07.006-.136.006-.07 0-.07-.028-.137-.028-.069 0-.069-.039-.136-.039-.07 0-.07.028-.137.028-.069 0-.069.054-.136.054-.07 0-.07-.021-.136-.021-.07 0-.07-.028-.137-.028-.069 0-.069-.009-.136-.009h-.273c-.07 0-.07.013-.136.013-.068 0-.068.01-.137.01-.067 0-.067-.045-.136-.045-.07 0-.07.041-.137.041-.069 0-.069.016-.136.016-.07 0-.07-.035-.136-.035-.07 0-.07.026-.137.026s-.067-.01-.136-.01c-.067 0-.067.045-.137.045-.067 0-.067-.059-.136-.059-.067 0-.067.028-.136.028h-.137c-.067 0-.067.005-.136.005-.07 0-.07-.002-.137-.002-.07 0-.07.002-.136.002-.07 0-.07-.052-.137-.052-.069 0-.069.008-.136.008-.07 0-.07-.015-.136-.015-.07 0-.07.033-.137.033-.07 0-.07.028-.136.028-.07 0-.07.024-.137.024-.069 0-.069-.087-.136-.087-.07 0-.07.07-.136.07-.07 0-.07-.068-.137-.068-.07 0-.07.037-.136.037-.07 0-.07-.009-.137-.009-.069 0-.069-.006-.136-.006-.07 0-.07-.015-.137-.015-.069 0-.069.03-.136.03-.07 0-.07.035-.136.035-.07 0-.07.015-.137.015-.07 0-.07-.082-.136-.082-.067 0-.067.023-.137.023-.069 0-.069.04-.136.04-.07 0-.07-.031-.136-.031-.07 0-.07-.039-.137-.039-.07 0-.07.043-.136.043-.07 0-.07.009-.137.009-.069 0-.069-.009-.136-.009-.07 0-.07-.017-.137-.017-.069 0-.069-.009-.136-.009-.07 0-.07.035-.136.035-.07 0-.07-.048-.139-.048-.07 0-.07.018-.139.018s-.069.026-.138.026c-.041 0-.072-.033-.108-.048-.037-.017-.083-.017-.109-.045-.026-.03-.058-.063-.071-.102-.013-.04-.04-.089-.035-.128.005-.041.048-.08.07-.115.019-.034.067-.043.101-.067.037-.026.059-.076.091-.11.03-.033.074-.059.1-.1.024-.037.037-.087.056-.128.02-.04 0-.095.015-.14.015-.044.054-.076.065-.124q.018-.065.028-.136c.01-.046.04-.087.046-.135.004-.045.017-.09.02-.138.002-.046-.01-.093-.01-.14 0-.046-.032-.092-.034-.14-.002-.045.007-.093.002-.14-.004-.046.028-.098.022-.145s-.074-.082-.08-.13c-.009-.046-.005-.093-.015-.139-.01-.045.03-.104.02-.15-.012-.045-.05-.084-.064-.129-.013-.046-.052-.082-.067-.128-.013-.045.007-.1-.008-.145-.016-.043-.078-.071-.096-.117-.015-.043.033-.112.015-.156-.017-.043-.106-.058-.125-.101-.018-.044-.007-.1-.024-.143-.02-.044-.01-.098-.032-.141-.02-.043-.078-.067-.1-.108-.022-.042.01-.11-.01-.154-.033-.063-.055-.05-.085-.113-.033-.063-.074-.039-.106-.102-.033-.062-.016-.07-.048-.132-.033-.062-.06-.047-.091-.108-.033-.063.006-.082-.026-.145-.033-.06-.054-.05-.087-.113-.032-.06.003-.08-.03-.14-.032-.06-.035-.06-.067-.122-.033-.062-.056-.05-.089-.11-.032-.063-.054-.05-.086-.113-.033-.062.008-.084-.024-.145-.033-.062-.074-.04-.106-.104-.033-.062-.04-.058-.072-.119-.032-.062.009-.082-.024-.145-.032-.06-.054-.05-.086-.112-.033-.063.004-.08-.028-.143-.033-.063-.078-.04-.11-.1-.033-.063-.014-.071-.046-.134-.033-.063-.03-.063-.063-.126-.022-.04-.037-.09-.076-.117-.037-.026-.084-.065-.132-.071l-.039-.004a.4.4 0 0 0-.132.03c-.037.017-.043.082-.071.112l-.091.102c-.029.037-.042.082-.07.12-.028.036-.097.043-.12.08-.027.038-.012.101-.038.14-.024.04-.078.06-.1.1-.021.039-.017.093-.038.134-.022.041-.059.072-.078.115-.02.041-.022.09-.04.132-.017.043-.025.087-.04.13-.016.043-.087.067-.1.113-.013.043-.033.086-.045.132q-.018.066-.033.134c-.009.045.056.104.05.15a1 1 0 0 0-.02.133c-.006.046-.071.083-.075.13-.005.046.028.094.026.141s-.048.089-.05.136q-.005.07-.007.14c0 .045.063.09.065.136 0 .045.011.09.013.136.002.045-.013.09-.01.136s-.011.093-.007.137.024.088.03.134-.006.093-.002.136c.006.046.043.087.05.13.006.046-.04.1-.03.143.008.046.067.08.075.126.009.045-.054.106-.043.15.01.045.037.086.048.13q.014.068.032.133c.013.044.089.07.102.113q.019.065.041.13c.015.043-.01.102.004.143.018.043.041.082.059.123q.025.065.052.126c.02.04.045.08.067.119.022.041.056.074.078.113s.002.106.026.142c.024.04.06.072.084.109.026.039.087.05.115.086.028.037.002.115.03.15.03.037.12.02.15.052.032.034.037.09.069.12.035.033.06.072.095.098.037.028.063.074.1.098.039.026.087.039.125.058.042.02.109.009.135.041a.4.4 0 0 1 .065.128c.008.041-.037.091-.048.134-.01.044-.045.063-.071.096-.026.034-.037.075-.076.095-.037.017-.078 0-.121 0-.07 0-.07.056-.137.056-.07 0-.07.015-.136.015-.07 0-.07.01-.137.01-.069 0-.069-.044-.136-.044-.07 0-.07.03-.136.03h-.137c-.07 0-.07-.013-.136-.013-.07 0-.07-.032-.137-.032-.069 0-.069-.024-.136-.024h-.137c-.069 0-.069.071-.136.071-.07 0-.07-.069-.136-.069-.07 0-.07.041-.137.041-.07 0-.07.009-.136.009-.07 0-.07-.02-.137-.02-.069 0-.069-.021-.136-.021h-.136c-.07 0-.07-.011-.139-.011-.07 0-.07.071-.136.071-.07 0-.07-.021-.137-.021-.07 0-.07-.04-.136-.04-.07 0-.07.072-.137.072h-.136c-.07 0-.07-.037-.137-.037-.069 0-.069-.006-.138-.006-.07 0-.07-.022-.137-.022-.069 0-.069.035-.136.035-.07 0-.07-.048-.136-.048-.07 0-.07.054-.139.054-.07 0-.07-.006-.139-.006s-.069-.011-.136-.011c-.07 0-.07.039-.139.039s-.069-.05-.138-.05c-.07 0-.07-.01-.139-.01s-.069-.012-.136-.012c-.07 0-.07.018-.136.018-.07 0-.07.05-.14.05-.068 0-.068-.035-.138-.035-.069 0-.069-.02-.138-.02-.07 0-.07-.019-.139-.019-.07 0-.07.03-.138.03-.07 0-.07-.026-.139-.026-.07 0-.07-.008-.139-.008s-.069.06-.138.06c-.07 0-.07-.043-.139-.043l-.138.002c-.07 0-.07.007-.139.007-.045 0-.102.039-.14.02-.04-.02-.024-.105-.053-.14-.026-.032-.073-.045-.082-.088-.01-.044-.032-.089-.024-.13s.072-.059.098-.091c.026-.033.037-.076.078-.095.039-.02.097-.013.138-.04.037-.023.037-.103.074-.131.035-.029.082-.04.117-.072.032-.03.093-.035.125-.07.03-.032.003-.118.03-.153.029-.035.122-.02.15-.056l.074-.117c.024-.037-.011-.113.015-.152.024-.039.063-.067.084-.108.022-.039.096-.052.117-.093.02-.039.013-.095.033-.137.02-.04-.005-.1.015-.142.017-.041.02-.09.037-.13.015-.041.052-.076.067-.12.015-.043.013-.09.026-.134.013-.043.073-.071.084-.117.013-.043.005-.093.015-.136.011-.043.057-.08.068-.123.01-.044.015-.091.023-.135.01-.043-.013-.095-.004-.14s.06-.083.067-.128c.007-.046 0-.093.007-.139.006-.045-.054-.097-.05-.143s.043-.086.048-.132c.004-.045.043-.088.047-.134.002-.045-.039-.093-.039-.139.002-.045.046-.088.046-.136l.002-.139c0-.069-.065-.069-.065-.138 0-.07.047-.07.047-.139s.018-.069.018-.138c0-.07-.005-.07-.005-.139 0-.07-.062-.07-.062-.138 0-.07.02-.07.02-.139 0-.07.023-.07.023-.139s-.013-.069-.013-.138c0-.07.054-.07.054-.139 0-.07-.041-.07-.041-.138 0-.07-.01-.07-.01-.139 0-.07-.016-.07-.016-.139s.052-.069.052-.138c0-.07.002-.07.002-.139s-.024-.069-.024-.138c0-.07-.034-.07-.034-.139 0-.07-.011-.07-.011-.139s.058-.069.058-.138c0-.07.022-.07.022-.139s-.071-.069-.071-.138c0-.07.032-.07.032-.139 0-.07.002-.07.002-.136 0-.07.015-.07.015-.137 0-.069-.043-.069-.043-.138 0-.07.03-.07.03-.139l.002-.138c0-.07.04-.07.04-.139 0-.07-.018-.07-.018-.138 0-.07-.026-.07-.026-.14 0-.068-.006-.068-.006-.136 0-.069-.037-.069-.037-.136 0-.07.052-.07.052-.136 0-.07-.03-.07-.03-.139 0-.07.028-.07.028-.139s-.007-.069-.007-.138c0-.07.02-.07.02-.139s-.033-.069-.033-.138c0-.07.046-.07.046-.139 0-.07-.076-.07-.076-.138 0-.07.035-.07.035-.139 0-.07-.005-.07-.005-.139s.028-.069.028-.138c0-.07.02-.07.02-.139s-.033-.069-.033-.138c0-.07.02-.07.02-.139 0-.07-.048-.07-.048-.138v-.139c0-.07-.01-.07-.01-.139s.023-.069.023-.138c0-.07.033-.07.033-.139v-.138c0-.07.021-.07.021-.139 0-.07-.05-.07-.05-.139s.005-.069.005-.138c0-.07-.028-.07-.028-.139s.013-.069.013-.138c0-.07.05-.07.05-.139s-.018-.069-.018-.138c0-.07-.026-.07-.026-.139 0-.07.002-.07.002-.139s.04-.069.04-.138c0-.07-.012-.07-.012-.139s.01-.069.01-.138c0-.07-.05-.07-.05-.139 0-.07.03-.07.03-.138 0-.046.03-.093.03-.139 0-.045-.028-.09-.03-.136-.003-.046.008-.093.004-.139-.002-.045-.07-.087-.074-.132s.029-.095.022-.139c-.004-.045-.032-.088-.039-.132s.054-.101.046-.145c-.01-.045-.055-.084-.063-.127-.009-.046-.04-.087-.048-.13q-.017-.069-.035-.133c-.01-.045.037-.106.026-.149-.013-.045-.093-.07-.106-.113q-.021-.065-.045-.127c-.015-.044.039-.113.024-.154-.015-.043-.041-.085-.057-.126-.017-.043-.104-.056-.12-.097l-.057-.124c-.02-.04-.033-.086-.052-.125-.022-.041-.035-.084-.059-.123-.023-.042-.015-.098-.039-.137-.023-.039-.045-.082-.069-.119-.026-.039-.097-.043-.123-.078-.028-.037-.05-.078-.078-.11-.03-.037-.05-.078-.08-.11a1 1 0 0 0-.1-.092c-.035-.032-.058-.071-.093-.1-.037-.027-.08-.045-.117-.069-.039-.026-.067-.071-.106-.09-.04-.02-.1-.02-.126-.053-.026-.034-.015-.09-.024-.132a.24.24 0 0 1 .058-.23c.027-.032.042-.084.081-.103.037-.017.087.028.132.028.07 0 .07-.002.137-.002.069 0 .069-.067.136-.067.07 0 .07-.013.136-.013.07 0 .07.004.137.004.07 0 .07.03.136.03.07 0 .07-.008.139-.008.07 0 .07-.002.138-.002.07 0 .07.015.139.015.07 0 .07-.026.139-.026s.069-.011.136-.011c.07 0 .07.004.136.004.07 0 .07.065.137.065h.136c.07 0 .07-.01.139-.01.07 0 .07-.016.138-.016.07 0 .07-.03.137-.03.07 0 .07-.009.136-.009.07 0 .07.076.137.076.069 0 .069-.06.136-.06.07 0 .07.025.136.025.07 0 .07-.04.137-.04.07 0 .07.014.136.014.07 0 .07-.01.137-.01.069 0 .069-.005.138-.005.07 0 .07.076.139.076.07 0 .07-.08.138-.08.07 0 .07.076.137.076.07 0 .07.004.136.004.07 0 .07-.06.137-.06.069 0 .069.054.138.054.07 0 .07-.024.139-.024.07 0 .07-.009.138-.009.07 0 .07-.03.139-.03.07 0 .07.052.139.052s.069-.059.138-.059c.07 0 .07.011.139.011s.069.009.138.009c.07 0 .07.056.139.056.07 0 .07-.03.138-.03.07 0 .07.008.14.008.068 0 .068-.004.138-.004.069 0 .069-.037.136-.037.07 0 .07-.008.136-.008.07 0 .07.028.14.028h.138c.069 0 .069-.018.138-.018.07 0 .07-.021.139-.021s.069.084.138.084c.07 0 .07-.06.139-.06.07 0 .07.039.138.039.07 0 .07-.037.14-.037.068 0 .068.05.138.05.069 0 .069-.068.138-.068.07 0 .07.072.139.072.045 0 .09-.03.136-.028.046 0 .091.032.137.032.045 0 .093-.08.138-.08s.089.076.134.078.094-.065.139-.063.089.072.134.074.091.015.137.017l.136.009c.046.002.091-.007.137-.004.045.004.093-.011.136-.007.045.004.093-.022.139-.02.045.005.086.061.13.066.045.004.09.013.134.017s.1-.063.145-.059c.045.007.084.065.128.072.045.006.097-.033.14-.026.046.006.09.03.132.039.046.006.09.021.135.028.045.009.084.045.13.054.045.009.093.004.136.013.045.009.102-.037.145-.028.046.009.085.048.128.058.045.011.08.057.125.068.046.01.102-.027.146-.016.045.011.082.046.127.057.043.013.08.054.124.065.043.013.095 0 .138.013s.089.021.132.036c.044.016.076.063.12.076.043.015.101-.015.144 0 .044.015.065.085.109.1.043.017.106-.022.15-.005l.127.05c.041.02.09.02.132.04.041.019.071.062.113.082.04.019.058.084.1.106.04.021.084.032.123.054s.11-.009.149.015.046.102.084.126c.04.023.109 0 .148.026s.034.11.071.136.082.039.12.067c.036.028.062.067.097.095.034.029.093.03.127.061.035.03.085.043.12.074.032.032.032.097.064.13.033.032.055.071.085.106.03.034.106.03.134.065.028.034.018.101.046.138s.082.052.108.089.017.097.041.136.1.046.121.085c.024.039-.021.117-.002.156.022.04.07.065.089.106.02.04.086.06.104.104.017.04-.007.101.008.143.016.043.072.071.087.114.013.044-.002.098.009.141q.02.066.034.132c.011.043-.006.093.003.139.008.045.032.086.039.132.006.045-.024.093-.018.138.005.046.033.087.037.133.002.045-.015.09-.015.136.002.045-.002.089-.002.136 0 .046.017.091.015.135s.009.09.006.136.04.095.035.14-.052.087-.058.13c-.007.046.021.096.013.141q-.012.069-.026.135c-.01.045-.09.073-.1.117-.01.043-.026.084-.039.127-.013.044.02.1.004.143-.015.044-.021.09-.037.132-.015.044-.039.083-.056.124s-.02.09-.039.132c-.02.04-.093.054-.112.095-.022.04-.003.102-.024.14-.024.04-.06.07-.085.11-.023.038-.078.055-.104.092s0 .113-.028.147c-.028.037-.088.046-.117.08-.028.035-.043.083-.071.117-.03.035-.089.042-.12.074-.03.033-.014.113-.047.145-.032.033-.106.02-.14.05-.033.03-.05.08-.085.108-.035.03-.082.041-.117.07-.035.028-.048.084-.082.112-.035.028-.06.072-.098.098-.037.026-.101.013-.138.039s-.05.084-.089.11c-.037.026-.07.058-.108.082s-.087.033-.126.057c-.039.023-.08.04-.119.064s-.074.055-.113.078l-.12.063c-.04.022-.07.063-.11.085l-.116.07c-.039.018-.1.003-.139.025-.04.02-.071.058-.112.078s-.106-.01-.147.009c-.041.02-.074.058-.115.075-.041.02-.07.065-.11.085-.042.02-.1-.004-.143.013s-.059.093-.1.11-.106-.017-.147 0-.059.096-.1.113-.089.021-.132.039c-.041.017-.089.021-.13.039s-.089.021-.132.037-.08.045-.121.063c-.04.015-.054.047-.083.075-.028.028-.056.048-.071.087-.013.039-.026.074-.022.113.005.04.03.066.05.101.033.059.013.07.048.13.032.059.058.046.093.104.032.059.03.06.065.12.032.06-.037.096-.002.157.032.059.043.054.075.113.033.058.09.028.122.088.032.059.04.055.073.115.033.059-.04.1-.006.16.032.059.065.042.1.102.032.059.006.074.038.135.033.06.072.038.104.097.033.059.035.059.07.117.032.058.006.074.04.134.033.059.063.044.098.102.033.06.007.076.04.134.032.06.051.05.084.108.032.059.036.057.071.117.033.061.054.048.089.107.032.06-.02.088.013.149.032.058.086.03.119.089.032.058-.024.09.01.15.033.058.083.032.116.09.032.06.028.063.06.121.033.06.048.052.08.113.033.06-.024.09.009.151.032.061.093.026.126.087.032.06-.007.082.026.14.032.061.045.055.077.113.033.059.029.063.061.122.033.06.035.058.067.119.033.06.013.071.046.132.032.06.017.07.05.13.032.06.04.056.073.117.022.04.098.052.12.093.02.041.01.1.032.14.024.042.09.055.114.094l.07.119c.024.039.021.095.045.134.026.043.078.043.12.067.043.024.069.12.118.12.011 0 .018-.068.029-.07a.26.26 0 0 0 .14-.052c.041-.033.1-.06.12-.113.014-.043-.014-.1.002-.142.015-.042.078-.068.093-.109s.004-.095.02-.136.06-.072.077-.115l.054-.123c.018-.041-.01-.102.007-.143s.045-.078.065-.12c.017-.04.05-.075.067-.116.02-.041.067-.067.086-.109.02-.04.044-.078.063-.119s.02-.088.041-.13c.02-.04.052-.073.074-.114.02-.04.02-.091.039-.13.02-.04.06-.07.08-.11.022-.04-.002-.102.02-.144.021-.039.09-.054.112-.093s.03-.084.052-.125l.065-.117.063-.12c.021-.038.002-.101.024-.14s.095-.05.117-.089c.021-.039.01-.097.032-.136s.07-.065.091-.104c.022-.04.056-.072.078-.11.022-.04.004-.102.028-.141.022-.04.05-.074.074-.113.021-.039.076-.06.097-.1.022-.038.054-.073.076-.112s-.015-.113.009-.152c.021-.039.03-.086.054-.125s.112-.04.136-.078c.024-.04.015-.098.04-.137.02-.039.064-.067.086-.106s.028-.089.05-.128c.021-.039.025-.088.05-.127.021-.04.09-.052.112-.091.022-.04.01-.1.032-.139s.02-.093.042-.132c.021-.039.065-.067.088-.106s.037-.082.059-.123.026-.09.05-.128c.021-.04.093-.052.114-.091.022-.04.024-.091.048-.13q.032-.059.063-.121c.021-.04.034-.085.056-.124s.091-.052.113-.093c.021-.039.056-.071.078-.112l.062-.122q.033-.06.061-.121c.022-.039.026-.089.048-.13.021-.039.028-.089.05-.128.021-.04.038-.082.06-.12.022-.042.018-.094.037-.135.022-.041.102-.05.123-.091.02-.041.033-.087.052-.126.02-.04-.006-.104.013-.145.02-.04.067-.067.087-.108s.054-.076.073-.117c.02-.041.003-.1.02-.14q.028-.064.052-.126c.02-.041.03-.085.05-.128.02-.041.058-.074.078-.115l.052-.125c.017-.041.056-.074.073-.117.018-.041.007-.095.024-.137.017-.04.046-.08.063-.121s.067-.072.084-.113c.018-.043.026-.086.044-.13.015-.043.043-.082.058-.123.015-.043-.034-.11-.02-.151.016-.044.05-.078.066-.122.015-.043.008-.093.024-.136.015-.044.034-.085.047-.128s.076-.071.089-.115c.013-.043.045-.082.058-.125.013-.044-.015-.1-.002-.143s.009-.091.022-.134l.03-.132c.01-.044.052-.08.063-.126.01-.043.041-.085.05-.128s.013-.09.021-.134c.01-.046-.02-.098-.01-.14.008-.046 0-.092.008-.137s.028-.087.037-.132c.006-.046.054-.083.06-.128.007-.046.02-.089.027-.134s.004-.091.008-.137c.005-.045-.023-.093-.02-.138.005-.046 0-.091.003-.137.004-.045.056-.086.059-.132.002-.045-.044-.093-.042-.138.003-.046-.015-.091-.013-.137 0-.045.08-.089.08-.134 0-.048-.021-.098-.023-.145-.005-.048.002-.1-.007-.145-.006-.048-.058-.087-.07-.132-.01-.048-.043-.087-.058-.13q-.024-.067-.052-.13c-.017-.046.022-.115.003-.156-.022-.043-.098-.056-.122-.097-.026-.044-.028-.096-.054-.133-.03-.04-.076-.06-.106-.093-.037-.039-.03-.117-.065-.14s-.076-.033-.095-.067c-.02-.035-.078-.068-.082-.109-.005-.039.021-.09.034-.13.013-.039.082-.04.108-.071s.016-.117.052-.132c.037-.015.091.032.133.032.067 0 .067-.047.136-.047.067 0 .067.05.136.05.067 0 .067.008.137.008.067 0 .067.007.136.007.067 0 .067-.024.137-.024.067 0 .067-.013.136-.013.067 0 .067-.044.137-.044.066 0 .066.072.136.072.067 0 .067-.065.136-.065.067 0 .067-.009.137-.009.067 0 .067.03.136.03.067 0 .067-.03.137-.03.067 0 .067.057.136.057.067 0 .067-.044.136-.044.067 0 .067.044.137.044.067 0 .067-.035.136-.035.067 0 .067.056.136.056.068 0 .068-.024.137-.024.067 0 .067-.023.136-.023.067 0 .067.02.137.02.067 0 .067-.038.136-.038.067 0 .067.037.137.037.067 0 .067-.015.136-.015.067 0 .067.017.136.017.068 0 .068.005.137.005h.136c.067 0 .067-.013.137-.013.067 0 .067-.013.136-.013.067 0 .067.006.136.006.068 0 .068.026.137.026.067 0 .067.009.136.009.07 0 .07-.065.137-.065s.067.043.136.043c.07 0 .067.007.137.007.069 0 .069-.046.136-.046s.067.037.136.037c.07 0 .07-.02.137-.02s.067.05.136.05c.07 0 .07-.024.137-.024.069 0 .069.016.136.016.07 0 .07.017.137.017h.136c.056 0 .128-.05.173-.02.046.03.035.113.056.165.022.052.037.09.029.145-.009.054-.005.115-.041.156-.03.032-.053.076-.083.113-.028.034-.067.064-.095.103-.026.037-.067.068-.091.109-.024.039-.037.086-.058.13-.022.04-.065.071-.085.117-.017.04.02.108.004.151-.015.043-.084.07-.097.117-.013.043-.015.093-.024.14-.009.046.011.096.007.144-.007.045-.057.088-.061.136-.002.046-.013.095-.013.143 0 .046.084.091.087.139.002.045-.03.093-.026.14.004.046.043.087.05.135.004.045-.046.1-.04.145.007.045.029.089.037.136.009.046.024.089.033.136.008.046.024.09.034.135.011.043-.017.1-.006.145.013.043.048.082.06.128.014.043.079.071.094.117.013.043-.018.101-.003.147.016.043.007.095.022.14.015.044.026.09.044.135.015.043.069.073.086.117.024.063-.024.082 0 .145s.037.058.06.123c.024.063.031.06.055.126l.047.127c.024.063.03.061.057.126.024.063.03.063.054.126s.071.045.095.11c.024.063.017.065.044.13.023.063.004.072.028.134l.047.128c.024.063.011.07.037.132.024.063.041.056.065.121.024.063.022.065.048.128.023.063.043.056.067.122.024.062.015.066.039.131.024.063.01.07.034.133.024.062.05.054.076.116.024.063.033.061.056.124.024.063-.012.078.011.14.024.064.052.055.076.118.024.062-.043.088-.02.153.024.063.053.052.078.117.024.063.05.054.074.12.024.062.002.07.026.136.024.063.041.056.065.121.024.063.022.065.046.128.023.063.026.063.05.125.023.063.032.061.056.124.023.063.05.054.075.117s-.054.093-.03.158c.024.063.095.037.12.102.023.062-.046.09-.023.153.024.063.046.057.07.12.024.062.076.043.102.108.023.063.017.067.04.13.025.062-.03.084-.003.147.023.063.058.05.082.115.023.062.058.05.082.114.024.063.015.068.039.132.024.063.007.072.03.135.024.063.005.071.029.136.023.065.045.056.07.12.025.062.033.06.06.123.023.062.03.06.056.125.024.063-.046.091-.022.154s.046.056.072.119c.023.063.047.054.073.12.024.064.041.055.067.12.024.065-.032.085-.006.15.023.063.052.054.075.117.024.062-.006.075.018.138s.093.04.117.102c.024.065.008.07.032.134.024.065.03.06.056.126.024.065.033.06.057.125s-.043.09-.02.154c.024.065.072.046.096.11.023.063.036.06.06.124.024.063.03.06.054.126.024.062-.002.073.022.138s.05.054.074.12c.024.064-.033.084-.007.149.024.065.082.04.108.106.024.065-.03.084-.006.15.024.064.028.062.052.127s.026.063.05.128c.023.063.069.047.093.11.024.065.01.07.034.134.024.065.044.057.07.122.023.065-.035.086-.009.151.024.065.067.048.091.113.015.04.063.07.08.11.018.041.026.085.043.126.018.041.024.087.042.128l.054.12c.017.042-.002.098.015.14.017.04.043.077.06.116.02.041.08.059.1.1.02.039-.035.115-.015.154s.11.043.132.082c.02.039.03.082.052.121.02.04-.015.108.006.147.022.04.07.063.091.1.026.046.087.048.13.074a.22.22 0 0 0 .128.04c.013 0 .028.033.041.031a.3.3 0 0 0 .113-.032c.032-.02.024-.078.045-.11.022-.031.046-.048.054-.087.01-.044.09-.072.098-.115s-.043-.098-.037-.14l.022-.13c.006-.044.02-.087.026-.13s.047-.083.054-.126c.004-.044-.035-.091-.03-.137.004-.043.019-.086.021-.13.002-.043.022-.086.022-.13.002-.043.009-.088.009-.132 0-.043-.024-.088-.024-.132 0-.069-.026-.069-.026-.138 0-.07.006-.07.006-.139 0-.07.026-.07.026-.138 0-.07.004-.07.004-.14 0-.068-.026-.068-.026-.138 0-.069.035-.069.035-.138 0-.07.009-.07.009-.139v-.138c0-.07-.054-.07-.054-.139 0-.07.01-.07.01-.138v-.14c0-.068.052-.068.052-.138 0-.069-.017-.069-.017-.138 0-.07.022-.07.022-.139 0-.07-.05-.07-.05-.138 0-.07.06-.07.06-.139 0-.07-.058-.07-.058-.139s.035-.069.035-.138c0-.07.01-.07.01-.139s-.043-.069-.043-.138c0-.07.009-.07.009-.139 0-.07-.013-.07-.013-.136 0-.07-.017-.07-.017-.137 0-.069.04-.069.04-.138 0-.07-.049-.07-.049-.139 0-.07.082-.07.082-.138 0-.07-.063-.07-.063-.139 0-.07.046-.07.046-.139s-.041-.069-.041-.138c0-.07-.005-.07-.005-.137 0-.069.01-.069.01-.136 0-.07.008-.07.008-.136 0-.07.052-.07.052-.139 0-.07-.02-.07-.02-.139s-.047-.069-.047-.138c0-.07-.015-.07-.015-.139v-.138c0-.07.03-.07.03-.139 0-.07-.028-.07-.028-.139s.004-.069.004-.138c0-.07.067-.07.067-.139s-.02-.069-.02-.138c0-.07-.043-.07-.043-.139 0-.07.018-.07.018-.138 0-.07-.024-.07-.024-.139 0-.07-.007-.07-.007-.139s.04-.069.04-.138c0-.07-.035-.07-.035-.139s.052-.069.052-.138c0-.07-.026-.07-.026-.139 0-.07.028-.07.028-.139s.008-.069.008-.138c0-.07-.004-.07-.004-.139s.005-.069.005-.138c0-.07-.003-.07-.003-.139 0-.07-.056-.07-.056-.138 0-.07.024-.07.024-.139 0-.07-.005-.07-.005-.139s.046-.069.046-.138c0-.07-.039-.07-.039-.139s.022-.069.022-.138c0-.07-.05-.07-.05-.139 0-.07.06-.07.06-.138 0-.07-.047-.07-.047-.139 0-.07.015-.07.015-.139 0-.045-.02-.09-.022-.136 0-.045.044-.093.041-.139-.002-.045-.04-.088-.045-.134-.002-.045.01-.093.006-.138s-.026-.09-.03-.135l-.017-.136-.024-.134c-.008-.046-.039-.087-.047-.13l-.027-.134c-.01-.046.005-.096-.006-.14s-.03-.086-.043-.129c-.013-.045-.04-.084-.052-.128-.013-.043.032-.106.017-.15-.015-.042-.085-.066-.102-.11q-.021-.065-.045-.127c-.017-.044-.022-.089-.041-.13-.02-.044-.018-.093-.037-.134-.02-.042-.015-.096-.037-.137s-.095-.054-.117-.093c-.024-.041-.03-.089-.054-.128s-.059-.071-.082-.108c-.026-.039-.015-.104-.044-.139s-.082-.054-.112-.086c-.03-.037-.046-.085-.076-.117-.033-.035-.093-.037-.126-.067-.034-.033-.043-.091-.078-.12-.036-.027-.095-.025-.132-.05-.039-.025-.086-.027-.125-.049-.04-.02-.052-.084-.078-.117-.026-.035-.078-.063-.087-.106-.009-.041.02-.089.03-.132a.3.3 0 0 1 .057-.115c.026-.032.043-.093.082-.112.037-.018.095.04.14.04.07 0 .07-.034.137-.034s.07.009.137.009c.069 0 .069.024.136.024.07 0 .07-.059.136-.059.07 0 .07.011.137.011.07 0 .07-.03.136-.03.07 0 .07.04.137.04.069 0 .069-.023.136-.023.07 0 .07.037.137.037s.067.017.136.017c.067 0 .067-.032.136-.032h.137c.07 0 .07.032.136.032.07 0 .07-.074.137-.074.069 0 .069.074.136.074s.067-.041.136-.041c.068 0 .068.037.137.037.067 0 .067-.07.136-.07.067 0 .067.018.137.018.067 0 .067.07.136.07.067 0 .067-.049.137-.049.069 0 .069.02.136.02.07 0 .07-.03.136-.03.07 0 .07.047.137.047.069 0 .07-.073.136-.073.07 0 .07.069.137.069.069 0 .069-.043.136-.043.07 0 .07-.024.137-.024.069 0 .069.073.136.073.07 0 .07-.021.136-.021.07 0 .07.028.137.028.069 0 .069-.01.136-.01.07 0 .07-.01.136-.01.07 0 .07-.034.137-.034.07 0 .07-.022.136-.022.07 0 .07.01.137.01.07 0 .069.053.136.053.07 0 .07-.004.136-.004.07 0 .07-.055.137-.055.07 0 .07.035.136.035.067 0 .067.01.137.01s.07.005.136.005c.07 0 .07-.043.137-.043.069 0 .069.028.136.028s.07-.045.136-.045c.07 0 .07.075.137.075.07 0 .07-.008.136-.008.07 0 .07-.037.137-.037.069 0 .069.004.136.004.07 0 .07.046.136.046.07 0 .07-.06.14-.06.068 0 .068.016.138.016.069 0 .069-.026.138-.026.046 0 .093.02.139.02.045 0 .093-.007.139-.007.045 0 .09.04.136.042.045.002.093-.044.139-.044l.138.007c.046.002.089.056.134.058l.137.009c.045.002.093-.02.138-.015.046.002.091.024.137.026.045.004.093-.015.138-.011s.09.037.134.041l.137.015c.045.005.093-.006.139-.002q.067.011.136.02c.045.006.093-.003.139.004l.136.02c.045.006.089.032.134.038.046.009.095-.004.139.005.045.008.093.01.136.02l.136.025c.046.01.078.078.122.087.045.01.095-.005.14.006s.083.052.126.065l.132.037c.046.013.1-.015.143 0 .044.013.1-.01.143.004.043.016.084.042.128.057.043.015.067.086.108.104.043.015.098.002.139.02.043.016.073.06.117.077.043.017.108-.015.149.002.043.02.09.026.132.046.041.02.07.069.11.09.042.022.061.085.1.107.041.021.089.03.128.052.041.023.112-.007.15.015.038.024.06.078.099.101.039.026.058.079.095.104.04.027.095.024.132.05.037.028.054.082.089.11.037.029.115.005.15.035s.054.078.088.109c.035.03.074.058.106.088.033.033.056.076.087.109.032.034.076.058.104.09.03.035.03.096.06.13.03.037.048.08.074.115.028.037.08.054.106.091l.072.117c.023.037.05.078.086.1a.3.3 0 0 0 .126.054c.008 0 .022-.033.03-.033.04 0 .093.037.128.02.035-.015.026-.098.054-.126.03-.032.082-.047.115-.08.032-.032.067-.06.1-.093.032-.032.045-.084.08-.115.032-.032.095-.032.127-.062l.102-.091c.035-.03.087-.04.121-.07.035-.03.035-.101.07-.13.034-.028.062-.069.097-.097l.108-.085q.056-.042.108-.084c.037-.028.07-.06.107-.089.036-.026.095-.024.132-.05.037-.025.104-.008.14-.034.04-.026.03-.12.07-.145.039-.024.119.02.158-.005.039-.023.041-.108.08-.132.039-.023.11.011.151-.013.04-.021.072-.06.11-.082.04-.022.077-.05.118-.071.041-.022.076-.05.117-.072.04-.02.065-.076.106-.095s.09-.024.132-.043q.06-.03.126-.057c.04-.017.08-.043.123-.06.041-.018.113.032.154.017.043-.017.067-.08.11-.095.044-.015.098-.002.139-.018.043-.015.073-.062.117-.078.043-.015.084-.034.127-.047.044-.013.096-.005.14-.018.042-.012.092-.006.136-.019.043-.013.077-.06.12-.072.044-.01.098.016.144.005.043-.01.078-.065.123-.074.043-.01.089-.026.132-.037.045-.008.089-.021.134-.03s.093-.004.137-.013.097.037.143.028c.045-.006.084-.052.13-.058.045-.007.093.004.138-.002q.068-.012.134-.02c.046-.004.09-.024.135-.028s.093.01.138.007l.137-.016c.045-.002.088-.034.134-.036.045-.003.09-.02.136-.02.046-.002.093.059.139.059l.136-.003c.046 0 .091-.021.137-.02.045 0 .09-.03.136-.03.046.003.089.035.134.037.046.003.09.029.135.03.045.003.095-.062.14-.06.046.004.087.054.133.059.045.004.093-.018.138-.013s.091.015.134.021c.046.007.093-.008.139-.002.045.007.09.007.136.013q.068.011.135.026l.134.026c.045.009.082.048.128.058.045.01.093.003.136.013.043.011.08.059.123.07.044.01.085.034.128.045.044.011.106-.043.15-.03.043.013.069.09.112.104.044.013.089.02.132.034l.13.042c.044.015.098-.003.139.013.043.015.093.013.134.028.043.015.078.047.121.065.044.017.078.052.12.067.04.017.077.048.118.065.042.017.091.017.133.034.04.02.09.02.132.04.04.019.069.064.11.084s.072.056.113.078c.04.022.11-.015.149.006l.117.07c.039.021.065.069.104.09.039.024.07.061.108.085.04.024.072.056.11.08.04.024.08.041.12.065s.095.022.132.048l.108.082c.037.026.059.074.095.102.037.026.098.021.135.047.036.028.067.063.101.091l.104.087c.035.028.054.076.089.106s.059.07.093.1c.035.03.08.045.113.075.032.03.093.035.125.065.033.03.02.11.052.141q.049.049.093.098c.033.032.078.05.109.082.03.032.047.08.078.112.03.033.065.063.095.098.03.034.087.043.117.078.03.034.047.078.076.112.028.035.082.05.11.087.028.035.072.06.1.095.028.037.026.093.054.13.026.037.09.046.117.082.026.037 0 .113.023.15.026.037.072.06.098.097s.03.09.054.128c.026.041.06.1.102.123.041.024.108-.01.158-.01.01 0 .02-.026.03-.029.056-.006.106.003.147-.032.042-.035.102-.067.12-.121.015-.043 0-.095.015-.139.015-.043.043-.08.058-.123.018-.043.026-.087.046-.128.017-.041.026-.089.045-.128.02-.04.067-.069.087-.108.02-.041.054-.074.075-.113.022-.039-.021-.117 0-.155.024-.04.113-.037.14-.076.023-.04.025-.091.051-.128s.07-.063.095-.1c.026-.036.048-.075.076-.112q.04-.056.08-.108c.028-.035.048-.078.078-.11.03-.036.07-.06.1-.094.03-.033.056-.072.086-.104.033-.032.059-.07.091-.1.033-.032.072-.056.104-.086.033-.03.048-.082.083-.11.034-.031.06-.07.095-.098s.106-.013.14-.041.046-.089.083-.115.08-.043.117-.07c.037-.025.093-.023.13-.049s.034-.115.071-.139c.04-.024.117.018.156-.004s.048-.1.087-.121c.039-.022.095-.015.136-.035q.061-.029.123-.056c.042-.02.068-.067.109-.087q.06-.03.123-.054c.041-.02.087-.028.128-.048.041-.017.08-.043.121-.06s.08-.043.123-.06c.044-.016.092-.016.135-.031s.084-.035.125-.05c.044-.015.1.017.143.002.044-.013.072-.073.115-.086s.1.02.143.006c.043-.013.071-.08.115-.093.043-.01.084-.035.13-.045.043-.011.09-.011.134-.02.043-.01.093.004.139-.006.045-.01.082-.05.127-.059.046-.008.093 0 .137-.008.045-.01.1.043.143.036.045-.006.086-.032.132-.039.045-.006.09.007.136 0 .046-.004.087-.032.132-.037s.087-.04.132-.045.093.024.14.02c.044-.003.088-.024.133-.026.046-.003.091.02.137.017.045-.002.088-.026.134-.028.045 0 .09-.007.136-.007.045 0 .091.046.137.046l.136-.002c.046 0 .091-.007.136-.005s.093-.017.14-.015l.135.009c.046.002.093-.015.14-.011.045.002.088.041.133.045.046.005.093-.008.139-.004.045.004.09.004.137.009.045.004.086.047.131.052s.094-.013.139-.01c.045.007.098-.038.143-.031s.082.069.127.075c.046.007.096-.01.14-.002.045.007.092.004.135.013.046.009.087.04.13.048q.068.013.135.03c.045.009.087.03.132.041s.097-.009.14.002c.046.011.083.055.126.065.046.011.096 0 .139.013.045.013.095.007.139.02.043.013.075.07.118.082l.13.046c.044.015.085.036.126.051l.128.046c.043.017.093.017.134.035.043.017.091.024.132.04.041.02.095.014.137.033.04.02.064.078.105.098.042.021.092.026.13.047l.12.067c.04.024.067.065.106.09.038.023.11-.003.147.023.039.026.063.074.1.1s.08.047.114.075c.037.029.063.07.1.098q.056.042.108.084c.034.03.056.076.089.106.034.03.052.076.084.109.033.032.085.045.115.078q.05.049.095.097c.03.035.046.08.074.117s.087.05.113.087c.028.037.07.062.095.101.026.04.035.09.058.128.024.04.027.091.048.13q.034.06.063.121c.02.041.017.091.034.135.018.043.085.064.1.108.015.043.045.082.058.128.014.043.007.095.018.138.01.046.041.087.05.132.008.046-.041.1-.037.145.006.046.006.091.01.137.003.045.02.09.02.136s.009.091.006.136q-.001.068-.01.137c-.005.045-.067.08-.074.126-.009.045.004.09-.006.136-.01.043-.01.09-.022.134-.013.044-.058.074-.073.117-.018.044.01.104-.01.143-.019.041-.019.093-.04.134-.022.04-.068.067-.092.106-.023.04-.073.059-.1.096-.03.037-.034.09-.062.125-.03.035-.078.05-.11.083q-.048.046-.1.09c-.052.044-.063.066-.1.094-.036.028-.066.06-.106.086-.036.024-.08.041-.119.065-.038.022-.086.028-.127.048s-.087.021-.13.039c-.041.017-.065.08-.108.095-.044.015-.09.024-.133.037s-.093-.002-.139.009c-.043.008-.08.069-.125.075-.043.007-.095-.02-.14-.015s-.092.013-.137.015c-.045.003-.09-.017-.136-.017q-.069.001-.134-.004c-.046-.002-.087-.03-.133-.035-.045-.004-.087-.017-.132-.024s-.097.037-.14.028-.083-.047-.126-.058q-.063-.018-.128-.04c-.043-.012-.09-.01-.132-.025s-.083-.037-.123-.052c-.041-.017-.091-.015-.133-.035-.04-.02-.069-.06-.11-.082-.041-.02-.067-.063-.106-.084s-.091-.022-.128-.046-.095-.02-.132-.045c-.036-.026-.048-.087-.082-.115-.035-.028-.063-.063-.098-.093-.034-.03-.112-.013-.143-.043-.032-.033-.028-.1-.058-.133-.032-.036-.08-.067-.091-.112a.4.4 0 0 1-.006-.152c.013-.045.088-.052.123-.089.03-.032.022-.101.05-.136s.074-.056.1-.09c.025-.038.036-.083.058-.122.024-.04.082-.056.102-.095.021-.04-.005-.102.013-.143.017-.042.086-.063.101-.104s.013-.091.024-.134.035-.087.044-.13c.006-.044-.048-.096-.046-.141.005-.043.013-.087.013-.132s-.01-.09-.013-.132c-.004-.046.009-.091 0-.135-.009-.043-.026-.086-.037-.13-.013-.043-.04-.078-.058-.12-.015-.042-.041-.079-.061-.118-.019-.04.002-.101-.021-.14a2 2 0 0 0-.074-.115c-.026-.037-.09-.041-.119-.078-.028-.035-.041-.082-.074-.115-.03-.033-.05-.076-.084-.106-.033-.03-.072-.054-.108-.082-.035-.026-.065-.063-.105-.087-.036-.024-.067-.065-.105-.086-.04-.022-.085-.035-.126-.057-.04-.02-.097-.002-.141-.02-.04-.017-.086-.021-.13-.038-.04-.015-.063-.098-.106-.11-.043-.014-.108.051-.151.04-.044-.01-.078-.047-.124-.058-.043-.009-.084-.035-.13-.041-.043-.007-.093.026-.138.02-.044-.007-.083-.076-.128-.08q-.066-.006-.137-.007c-.045-.002-.093.06-.138.058s-.09-.039-.135-.039c-.047 0-.09.033-.136.035-.048.002-.095-.052-.14-.048-.046.002-.096-.01-.141-.006s-.087.052-.132.058-.085.048-.13.056c-.046.01-.1-.028-.145-.019-.046.01-.076.074-.122.084-.045.013-.097-.006-.14.007-.046.015-.076.06-.12.076-.043.017-.11-.029-.15-.009-.044.02-.06.095-.098.115-.042.021-.09.026-.128.05-.041.024-.08.043-.12.067-.038.026-.101.017-.136.045-.037.028-.037.102-.07.132q-.053.044-.1.093-.05.047-.094.098c-.03.034-.115.026-.14.063-.029.036-.023.1-.046.136a2 2 0 0 0-.072.117c-.021.041-.053.076-.073.119-.02.041-.048.082-.063.126-.015.043 0 .097-.01.14-.011.046-.027.09-.036.132-.008.046.01.094.005.14-.005.044-.052.088-.052.133s-.013.093-.01.139c.001.045.047.089.053.132.007.045-.032.097-.024.143.01.045.046.084.06.128q.014.065.036.132c.015.043.06.073.078.114q.024.063.056.122c.022.039.02.093.043.132.024.039.078.056.104.093s.022.095.052.132c.028.035.068.063.098.095.03.033.038.09.07.122.033.03.098.028.133.058.032.03.044.087.08.117l.107.087c.036.026.088.03.127.056.037.026.085.035.123.058.037.024.07.056.109.08l.117.07c.039.021.071.056.112.078.04.021.087.028.128.05.039.019.06.082.102.101s.108-.017.149.002.076.05.12.068c.04.019.077.043.12.062.042.018.092.015.135.033.041.017.074.058.114.076.042.017.085.028.128.045s.083.039.124.054c.04.017.09.017.132.033.04.015.073.06.117.076.04.015.095.002.138.019.041.015.063.089.107.104.043.015.088.02.131.035.042.015.094.004.137.019s.075.056.12.071c.042.016.09.014.133.029s.094.008.134.023c.044.015.087.026.13.041s.096.005.137.02c.043.015.073.07.117.085.043.015.073.064.116.08.044.015.105-.022.148-.01.044.016.096.005.139.018.043.015.07.076.114.091s.093.009.136.024.083.041.127.056c.043.015.1-.004.14.011.043.015.074.065.117.08s.071.072.115.087c.043.015.097-.002.14.015l.128.054c.044.015.078.05.122.067.043.018.087.028.13.046l.125.054c.043.017.102-.007.145.01.044.018.07.074.11.092.044.017.08.043.124.062.04.018.11-.021.152-.002.04.02.078.05.119.07s.069.071.11.09.1.003.14.024c.042.02.079.048.12.07.041.021.084.034.126.056q.06.032.123.063c.041.021.075.052.117.073q.059.034.117.072c.039.024.069.06.108.084.04.024.082.041.121.067.04.024.093.026.13.052l.113.078c.036.026.045.096.082.122s.098.021.134.05q.056.041.109.084c.034.028.09.034.125.065l.104.093q.053.046.102.093c.032.032.024.108.054.14.032.033.087.046.117.079.03.032.067.063.097.097.03.035.029.095.059.13.028.035.08.052.108.089s.043.082.07.119c.025.037.058.07.084.108.024.04.056.074.078.113q.036.06.067.119c.022.039.02.093.039.134l.058.123c.022.05.09.059.132.09.043.03.076.077.13.08.007 0 .011.023.015.023.053 0 .098-.045.142-.071a.3.3 0 0 0 .112-.098c.035-.058.067-.039.1-.095.034-.058-.014-.084.021-.143.022-.039.052-.073.074-.112s.073-.061.097-.1c.022-.039.007-.102.028-.14.022-.04.078-.061.1-.1s-.009-.109.015-.15c.022-.039.11-.041.132-.08l.065-.119c.021-.039.03-.087.052-.128.022-.039-.002-.106.02-.145s.1-.047.12-.086c.023-.04-.012-.11.011-.15.022-.039.072-.063.096-.102.022-.039.082-.058.104-.097.022-.04-.007-.106.015-.147s.06-.07.082-.11.01-.098.033-.137c.022-.04.102-.048.123-.089.022-.039-.013-.108.009-.15.022-.04.1-.05.12-.09.023-.041.05-.076.072-.117s.037-.082.059-.124c.022-.04 0-.101.02-.143.019-.04.047-.078.067-.119s.064-.069.084-.11-.008-.106.01-.145l.062-.121c.019-.041.086-.059.106-.1s-.011-.106.006-.147c.02-.041.102-.054.121-.096.02-.04.02-.09.037-.132.018-.04.056-.075.074-.116s.013-.094.03-.137c.017-.041-.004-.1.013-.143.018-.041.06-.073.078-.115.017-.04.024-.088.041-.13s.017-.09.032-.132c.016-.043.055-.075.07-.119.015-.043.047-.08.063-.12.015-.044.015-.092.03-.135.016-.044.037-.085.05-.126.015-.043.046-.08.06-.123s.022-.089.037-.132l.042-.13c.013-.044.05-.08.06-.124.013-.043.013-.09.024-.134.01-.043-.041-.104-.03-.15.01-.043.099-.069.11-.112s.015-.09.026-.134c.01-.043.004-.093.013-.136.009-.046-.026-.098-.017-.143.008-.046.045-.085.054-.128q.013-.068.022-.134c.006-.046.023-.09.03-.132.006-.046-.026-.096-.022-.141.007-.046.024-.09.03-.132.005-.046.042-.087.046-.133.004-.045.013-.09.015-.136.004-.045.026-.089.028-.134s-.062-.093-.062-.139l.008-.134c0-.045.065-.09.065-.136 0-.048.004-.1.002-.145-.004-.048-.067-.09-.075-.137s.04-.106.03-.152c-.01-.047-.085-.077-.098-.12-.015-.046.005-.105-.013-.148-.017-.046-.058-.08-.078-.121-.021-.043-.015-.102-.038-.143-.027-.043-.105-.048-.13-.085-.03-.04-.011-.116-.042-.149a1 1 0 0 0-.108-.1c-.035-.023-.072-.034-.09-.069-.02-.034-.062-.067-.066-.108s.03-.078.043-.12c.013-.038.005-.095.03-.125.027-.03.08-.037.118-.052s.075-.067.117-.067c.067 0 .067.037.136.037.067 0 .067-.007.136-.007.068 0 .068-.008.137-.008.067 0 .067.04.136.04.067 0 .067-.03.137-.03.067 0 .067-.023.136-.023.067 0 .067.047.136.047.068 0 .068-.002.137-.002.067 0 .067-.004.136-.004.067 0 .067-.015.137-.015.067 0 .067-.009.136-.009.067 0 .067-.004.137-.004.067 0 .067.015.136.015.067 0 .067.045.136.045.067 0 .067-.028.137-.028.067 0 .067.011.136.011.067 0 .067-.013.137-.013.067 0 .067-.02.136-.02.068 0 .068-.004.136-.004.067 0 .067.005.137.005.067 0 .067.032.136.032.068 0 .067.017.137.017.067 0 .067-.058.136-.058.068 0 .068.022.136.022s.068.02.137.02c.067 0 .067-.003.137-.003.067 0 .067-.013.136-.013.067 0 .067.015.136.015.068 0 .068.017.137.017.067 0 .067.003.136.003.067 0 .067-.048.137-.048s.07.043.136.043c.067 0 .067-.02.136-.02.068 0 .068.016.137.016s.069-.022.136-.022.067-.032.137-.032.07.054.136.054c.067 0 .067-.01.136-.01.07 0 .07-.044.137-.044.069 0 .069.058.136.058.07 0 .07-.039.137-.039s.07.033.136.033c.056 0 .115-.022.16.008.046.03.109.065.13.117s.009.122 0 .176-.052.095-.09.136c-.031.033-.057.074-.087.11-.029.035-.08.057-.109.098-.025.037-.056.078-.08.12-.023.038.015.114-.006.157-.022.041-.08.063-.1.108-.017.042-.041.085-.056.13l-.043.135c-.013.043-.018.093-.027.138-.008.046-.025.091-.032.139-.006.045.024.095.02.143-.003.045.021.09.021.14 0 .046-.07.094-.067.141.002.046.05.089.054.136.004.046-.041.098-.034.143.004.046.023.091.032.137.006.045.02.09.028.136l.033.137c.009.045-.015.1-.005.145.011.043.082.073.095.119.014.043.018.09.033.136l.043.132c.013.044.033.087.048.133.015.043.013.093.028.138.015.043.007.095.024.14.015.044.039.085.056.13.024.063.026.063.05.129.024.062.07.045.095.11.024.063-.026.082 0 .147l.048.128c.024.063.056.052.08.115.024.062.037.058.061.123.023.063.032.06.056.123s-.015.079.009.143c.023.063.002.072.026.137.024.063.05.054.074.117s.036.058.062.123c.024.063.007.072.03.134.024.063.007.072.03.135.025.063.083.04.107.106.024.063 0 .073.024.136s.013.067.037.132c.023.063.065.048.088.113.024.063.002.071.026.136.024.063.018.067.041.13s.028.063.055.126c.023.063-.011.078.012.14.025.063.042.057.068.122.024.063.058.05.082.115.023.062.023.064.048.127.024.063-.02.08.004.143s.01.07.035.132c.023.063.047.054.07.117.025.063.023.065.049.128.024.063.058.05.082.115.024.063-.015.08.009.143.023.062.015.067.038.132.024.063.044.056.07.119.024.063-.007.076.017.138s.043.057.067.12c.024.062.022.064.046.127s.017.067.041.13.065.048.089.113c.024.063-.02.08.004.145.024.063.065.047.089.113.024.062.01.069.034.131.024.063.065.048.09.113.023.065.019.065.045.13.023.063-.028.084-.005.147.024.063 0 .074.027.137.023.063.1.034.127.097.024.063-.007.076.02.139.023.063 0 .073.026.136.024.065.017.067.04.13.024.065.055.052.079.117.023.063.01.07.035.132.023.063.008.07.032.134.024.063.056.052.08.115.024.065.026.063.052.128.024.065.054.052.078.117s-.046.09-.022.153c.024.065.02.068.043.13.024.065.048.057.072.12.023.062.058.05.082.114.024.063.041.056.065.122.024.062-.028.084-.004.147.024.065.074.045.097.11s-.025.082-.002.147c.024.065.011.07.035.133.024.064.087.04.11.103.024.065-.045.091-.021.156s.04.059.065.122c.023.062.04.056.065.12.023.066.047.057.07.12.025.065.033.06.057.126.024.065.026.062.052.127.024.065-.041.091-.017.154l.054.128c.017.043.091.06.11.104.017.043.002.097.022.14.017.044.028.09.047.13.02.041.046.08.066.122.02.04.058.073.078.114s.008.098.028.139.08.063.102.104c.019.041-.016.11.004.152.022.04.091.056.112.097s.067.07.09.108q.03.062.062.121.032.06.067.12.037.059.07.116c.023.04.036.085.06.124s.03.089.056.128c.024.039.076.06.1.097.026.039.011.104.037.14.026.04.054.074.08.111s.078.056.104.093c.028.037.013.106.04.141.029.037.066.067.094.102.03.037.07.063.1.095.03.035.071.06.101.093.03.035.08.05.113.082.032.033.059.072.091.102.034.033.067.06.102.091.034.03.034.102.069.13l.108.087c.04.028.082.047.12.071q.06.038.119.07a.24.24 0 0 1 .082.077.2.2 0 0 1 .045.102c.009.041.056.08.048.124-.01.043-.045.076-.073.108s-.074.03-.114.048c-.036.017-.065.075-.108.075-.067 0-.067-.004-.136-.004-.067 0-.067.03-.136.03-.068 0-.068-.013-.137-.013-.067 0-.067.013-.134.013s-.067-.065-.136-.065c-.068 0-.068.055-.137.055-.067 0-.067-.016-.136-.016-.067 0-.067.02-.137.02-.067 0-.067.006-.136.006-.067 0-.067-.015-.137-.015-.067 0-.067.013-.136.013-.067 0-.067-.039-.136-.039-.07 0-.067-.008-.137-.008-.067 0-.067.015-.136.015-.067 0-.067-.024-.136-.024-.068 0-.068.017-.137.017-.067 0-.067-.01-.136-.01-.067 0-.067.038-.137.038-.067 0-.067-.015-.136-.015-.068 0-.068-.05-.136-.05s-.068.052-.137.052c-.067 0-.067.015-.137.015-.066 0-.066-.073-.136-.073-.067 0-.067.071-.136.071-.068 0-.068-.026-.137-.026-.067 0-.067-.047-.136-.047-.067 0-.067.067-.137.067-.066 0-.066-.041-.136-.041-.067 0-.067.056-.137.056h-.136c-.067 0-.067-.017-.136-.017-.067 0-.067-.03-.137-.03-.067 0-.067.056-.136.056-.067 0-.067-.065-.137-.065-.067 0-.067-.007-.136-.007-.067 0-.067.04-.136.04-.067 0-.067-.022-.137-.022-.067 0-.067.015-.136.015-.07 0-.067.021-.137.021-.069 0-.069-.06-.136-.06s-.067.017-.136.017c-.07 0-.07.026-.137.026s-.067-.043-.136-.043c-.07 0-.07.073-.137.073-.069 0-.069-.015-.136-.015-.07 0-.07-.07-.136-.07-.07 0-.07.072-.137.072-.054 0-.104-.045-.147-.071s-.095-.056-.12-.104-.006-.106-.003-.158c.002-.052.004-.104.034-.147.026-.037.078-.057.102-.096.022-.039.022-.09.039-.13q.031-.058.056-.12c.015-.042-.013-.098 0-.14.013-.04.072-.069.082-.112.011-.041-.034-.095-.026-.14.01-.044.07-.076.074-.122.007-.043.004-.089.009-.132s-.02-.089-.018-.134c.003-.044.018-.087.02-.132 0-.044.05-.087.05-.133l-.002-.138c-.003-.046-.07-.087-.074-.132s-.033-.087-.039-.132c-.007-.046-.004-.091-.013-.134-.009-.046.046-.104.035-.15-.011-.043-.031-.089-.046-.132-.013-.043-.095-.063-.113-.106-.015-.043.029-.108.012-.152-.018-.04-.07-.069-.09-.11s.01-.106-.012-.147-.093-.055-.117-.093c-.024-.04-.055-.072-.08-.11-.024-.04-.013-.103-.04-.14-.025-.036-.069-.062-.097-.099s-.048-.078-.076-.115c-.028-.034-.087-.045-.117-.08s-.017-.108-.05-.14c-.03-.033-.103-.027-.136-.06-.032-.032-.047-.081-.08-.112-.032-.03-.08-.047-.115-.078-.034-.03-.064-.065-.1-.093-.034-.028-.077-.045-.114-.073-.037-.029-.045-.094-.082-.12s-.108-.004-.145-.03c-.04-.026-.07-.06-.109-.084s-.052-.089-.093-.113c-.038-.024-.112.017-.153-.004-.042-.022-.064-.078-.104-.098-.041-.02-.072-.062-.113-.082s-.078-.054-.12-.071c-.04-.018-.101.004-.142-.013-.043-.018-.097 0-.14-.015-.044-.016-.063-.1-.107-.115l-.132-.04c-.043-.012-.093-.01-.136-.023-.044-.01-.098.013-.144.002-.043-.01-.081-.048-.127-.058-.046-.009-.087-.037-.132-.044-.046-.008-.098.035-.143.029q-.067-.01-.136-.014c-.046-.004-.09-.021-.135-.026s-.087-.058-.134-.06c-.045-.002-.093.006-.138.004s-.094.002-.14.002c-.045 0-.092.009-.138.011-.045.002-.095-.022-.138-.017l-.139.015c-.045.006-.08.087-.126.095-.045.007-.097-.026-.143-.017s-.093.004-.138.017c-.045.011-.078.065-.119.078-.043.015-.108-.03-.152-.013-.043.018-.082.046-.123.065s-.076.056-.117.078q-.062.031-.121.065c-.04.024-.065.07-.102.095-.037.026-.078.048-.113.076s-.056.074-.09.104c-.035.03-.091.037-.122.072-.032.032-.084.05-.112.086-.029.035.004.117-.024.156-.026.037-.089.05-.115.089-.024.039-.03.089-.05.128s-.054.075-.071.117c-.017.04-.059.075-.074.119-.015.043.032.106.02.151-.013.044-.102.067-.113.113-.01.043-.013.09-.02.136-.008.044.033.095.028.141-.004.043.012.089.01.134-.003.046-.042.089-.042.132 0 .046.048.087.05.132s-.033.091-.026.137c.004.045.035.084.041.13.007.043-.01.093-.002.136s-.002.093.01.136.081.07.094.113-.046.11-.03.154c.015.041.084.065.102.106s-.003.1.02.14c.018.042.03.087.05.126.023.04.107.044.13.083.025.039.038.082.062.119q.038.054.08.108c.025.037.004.11.034.145.028.035.117.017.148.052.03.032.056.067.088.1.03.032.052.073.085.106.032.03.058.067.093.097q.052.04.108.08c.034.028.06.067.098.093.036.026.09.026.127.052q.056.034.115.067c.039.024.058.078.098.1.038.022.084.035.123.054.039.02.058.065.084.098.026.034.074.062.083.104.008.04-.005.09-.015.134-.012.043-.02.093-.046.125a.4.4 0 0 1-.113.076c-.036.018-.084-.02-.13-.02-.066 0-.066.076-.136.076-.067 0-.067-.026-.137-.026-.067 0-.067-.036-.136-.036-.067 0-.067-.011-.136-.011-.067 0-.067.058-.137.058-.067 0-.067-.015-.136-.015-.067 0-.067-.024-.137-.024-.067 0-.067-.002-.136-.002s-.069.018-.136.018c-.068 0-.068.036-.137.036-.067 0-.067-.058-.136-.058-.067 0-.067.03-.137.03-.069 0-.069.002-.136.002s-.067-.028-.136-.028c-.067 0-.067.035-.137.035-.067 0-.067.021-.136.021-.07 0-.07-.082-.137-.082s-.067.005-.136.005c-.067 0-.067.008-.136.008-.067 0-.067.018-.137.018s-.07.015-.136.015c-.067 0-.067-.04-.137-.04-.067 0-.067-.002-.136-.002-.07 0-.07.022-.136.022-.07 0-.07.024-.137.024-.07 0-.07-.037-.136-.037-.067 0-.067-.01-.137-.01s-.07.019-.136.019c-.07 0-.07.024-.136.024-.07 0-.07-.018-.137-.018s-.07-.021-.137-.021c-.049 0-.101.03-.142.006a.3.3 0 0 1-.113-.097c-.023-.037-.065-.063-.087-.1l-.065-.112c-.019-.04.005-.098-.015-.137-.017-.039-.054-.071-.069-.11-.017-.04-.059-.07-.074-.11-.015-.042.028-.1.015-.141-.012-.042-.034-.078-.045-.12-.013-.045-.072-.056-.102-.09s-.038-.091-.082-.107a.3.3 0 0 0-.102-.02c-.056 0-.106.031-.153.064-.04.026-.085.037-.124.063-.039.023-.071.056-.11.08-.04.023-.07.062-.109.086s-.07.06-.112.082-.098.014-.139.035c-.04.022-.073.059-.114.078s-.09.028-.13.048c-.042.02-.092.024-.132.04-.042.02-.065.083-.107.1-.04.018-.108-.017-.15-.002-.042.018-.088.024-.13.04-.044.017-.064.092-.107.107-.043.016-.098-.002-.14.014-.044.015-.077.064-.12.08-.043.015-.09.026-.132.039s-.095.002-.139.015c-.043.013-.095.004-.138.015-.046.013-.091.013-.135.026-.045.01-.08.063-.123.074l-.134.032c-.046.01-.089.03-.133.04-.045.008-.092.003-.138.012-.045.009-.1-.028-.143-.022-.045.01-.084.052-.127.059-.046.008-.085.05-.13.058-.046.007-.1-.043-.146-.037-.045.007-.093-.002-.136.005-.045.006-.084.065-.13.07-.045.003-.095-.03-.14-.025-.048.005-.09.044-.132.048-.048.004-.094.02-.137.022-.048.002-.093.013-.137.015-.047.002-.095-.05-.138-.048-.05.002-.093.06-.134.06-.098.079-.143.044-.182.044m-3.787-6.767c.047 0 .108-.01.147.011a.35.35 0 0 1 .121.095c.026.04.024.104.028.15.007.045-.021.09-.037.134-.017.046-.043.091-.056.14-.01.046.004.1-.002.152-.007.048-.05.094-.054.146-.005.047.024.1.022.151-.002.048.021.098.021.15 0 .045.02.088.02.136.002.045-.065.095-.06.14.004.046.034.09.038.135s-.006.093 0 .139c.006.045.033.086.041.132.01.045.013.09.022.136s-.002.095.008.139c.012.043.07.075.083.12.013.044-.026.105-.01.148.012.043.08.07.094.113.015.043.015.09.033.134.015.043.017.09.034.134.018.041.054.076.074.117s.06.072.08.113c.02.04.02.09.041.132.022.041.074.063.096.104.021.039-.033.123-.009.162s.058.072.084.11c.024.04.094.048.12.087.025.037.008.106.034.143s.087.05.115.087.065.063.095.1c.028.034.054.073.083.108.03.034.045.082.075.117.03.032.045.084.078.116.032.033.096.035.128.065q.049.049.101.093c.035.03.077.052.111.08.035.029.03.109.067.137s.104.015.141.041.058.078.095.104q.058.04.115.076c.039.024.07.063.11.084s.113-.015.154.007.056.09.098.11c.04.02.088.028.13.048.04.017.088.026.132.043l.127.05c.044.015.083.039.128.054l.132.04c.044.012.1-.023.145-.012s.074.09.12.1c.045.008.099-.03.145-.022.045.007.09.007.136.013.045.007.089.022.134.026.045.005.093-.03.139-.028.045.002.086.078.134.078.045.002.093-.004.139-.004.045 0 .093-.022.138-.022.045-.002.09-.026.137-.03.045-.005.095.032.142.028s.085-.072.13-.08c.046-.007.098.026.143.015.046-.009.1.013.143.002.046-.01.078-.071.124-.084.045-.013.086-.033.13-.048.043-.015.088-.024.132-.041.043-.018.08-.046.12-.065.044-.02.113.017.155-.005.04-.021.053-.095.093-.119.039-.023.097-.019.134-.045.039-.026.067-.065.104-.093s.101-.024.136-.054.057-.078.09-.11c.032-.033.042-.087.073-.122s.054-.074.082-.112c.028-.037.028-.091.054-.13.024-.04.108-.044.13-.085.021-.041.05-.08.069-.123.02-.041.005-.1.02-.143s.058-.08.071-.126c.013-.043.009-.095.02-.14.01-.046-.009-.096-.002-.143s.04-.087.045-.135c.005-.045-.017-.093-.015-.14q.002-.068.002-.139c0-.045.026-.093.024-.139-.003-.045.004-.093-.003-.138-.004-.046-.03-.089-.036-.134q-.012-.069-.026-.135c-.011-.045-.033-.086-.043-.13-.013-.043-.059-.075-.074-.119-.015-.043-.022-.086-.039-.13-.017-.04-.015-.093-.035-.132s-.02-.093-.041-.134c-.024-.039-.063-.07-.086-.108-.027-.037-.07-.063-.098-.1s-.004-.112-.032-.15c-.028-.034-.11-.023-.143-.058-.03-.032-.044-.084-.076-.117-.033-.032-.08-.047-.115-.078a2 2 0 0 0-.101-.09c-.035-.029-.031-.107-.068-.137-.034-.028-.084-.041-.121-.067s-.08-.046-.12-.072c-.036-.025-.107 0-.146-.025-.04-.024-.037-.113-.076-.137s-.106 0-.147-.021c-.04-.024-.072-.059-.11-.08-.04-.022-.07-.064-.111-.085s-.093-.02-.135-.041c-.04-.022-.084-.037-.125-.056q-.06-.029-.126-.057c-.04-.02-.065-.073-.108-.093-.04-.02-.104.009-.147-.009-.041-.02-.085-.032-.126-.05-.041-.017-.08-.04-.123-.058-.041-.017-.067-.071-.11-.09-.042-.018-.094-.014-.137-.031-.041-.018-.067-.076-.11-.093s-.098-.005-.139-.022c-.04-.017-.097 0-.14-.017-.042-.018-.08-.046-.124-.063l-.128-.05c-.043-.017-.072-.067-.115-.082s-.075-.056-.119-.074c-.043-.015-.098-.004-.14-.02-.044-.014-.076-.06-.118-.077-.043-.015-.09-.022-.133-.04-.042-.014-.09-.017-.133-.032-.041-.015-.076-.052-.119-.067-.04-.015-.087-.024-.13-.039-.04-.015-.08-.04-.123-.056-.041-.015-.097.004-.141-.01-.041-.016-.07-.072-.11-.09-.041-.015-.1.011-.143-.006-.042-.015-.091-.013-.135-.028q-.062-.026-.125-.05c-.041-.017-.089-.022-.13-.039s-.078-.045-.121-.063l-.126-.05c-.041-.017-.063-.084-.104-.101s-.097-.005-.138-.022-.074-.059-.113-.078c-.041-.017-.093-.015-.134-.032-.041-.02-.06-.083-.102-.102-.041-.02-.1 0-.14-.02-.042-.02-.087-.028-.128-.047-.042-.02-.07-.065-.109-.085-.04-.021-.101-.002-.14-.021-.04-.022-.061-.078-.1-.1s-.076-.05-.115-.072-.102-.006-.139-.028c-.038-.024-.043-.101-.082-.125s-.071-.056-.108-.08-.093-.02-.13-.046-.071-.056-.108-.082-.104-.009-.14-.035c-.038-.026-.036-.104-.07-.132-.052-.039-.128-.006-.19-.006-.044 0-.087-.024-.126-.005-.05.024-.12.041-.148.087s.013.115.013.171c0 .041.007.041.007.082 0 .046-.033.093-.035.139 0 .045.026.093.024.138s-.009.094-.009.139c-.002.045-.03.09-.032.139q-.005.069-.013.138c-.002.046-.037.089-.041.137-.005.045.032.095.028.14l-.015.139c-.005.045.028.097.021.143s-.052.086-.058.132c-.007.045-.039.089-.046.134s-.017.091-.023.137a.4.4 0 0 0 .017.158.35.35 0 0 0 .093.125c.054.046.132.026.2.026.03 0 .058.024.086.013.045-.015.089-.039.134-.052s.102.013.147.005c.046-.011.093-.01.141-.018.048-.009.085-.084.132-.09.048-.007.098-.003.145-.007.048-.005.098.032.145.03.048-.002.096-.015.143-.015.109-.002.109-.007.202-.007m-9.573-9.029c-.046 0-.091.026-.136.03-.046.003-.09.016-.135.022-.045.007-.093-.015-.138-.006s-.096-.005-.139.006-.093.013-.136.026-.078.054-.122.072c-.043.017-.1 0-.142.019-.042.02-.072.067-.111.089-.041.021-.067.065-.108.088-.04.024-.067.063-.106.09-.037.025-.115-.005-.152.023s-.056.076-.093.106c-.035.028-.082.046-.117.076s-.054.076-.089.108c-.032.033-.069.06-.1.096-.03.032-.08.051-.11.086s-.024.1-.052.137c-.028.034-.1.039-.128.075-.028.037-.01.106-.038.143-.026.037-.065.065-.091.104-.026.037-.065.067-.09.106-.023.04-.03.09-.053.128-.024.039-.026.091-.048.132-.022.04-.063.07-.084.11-.022.042-.011.098-.033.14-.021.04-.121.043-.14.084-.02.04-.029.088-.046.132-.02.04.01.106-.007.147s-.086.063-.103.106c-.018.041.004.1-.014.143-.017.043-.021.089-.036.132-.016.043-.037.084-.052.128-.015.043-.05.08-.065.123-.015.044-.052.08-.065.124-.013.043.015.1 0 .145l-.04.132c-.012.043-.014.09-.025.134-.013.043-.087.072-.1.117-.01.043.028.102.018.147-.011.044-.05.082-.061.128l-.033.134c-.008.046-.034.087-.045.132-.009.046.048.104.039.15-.009.045-.071.08-.078.125-.009.046-.004.093-.013.139-.009.045-.004.093-.013.138q-.01.069-.024.137c-.006.045-.024.089-.03.134l-.02.137c-.006.045.035.097.029.142-.007.046-.08.083-.087.128-.004.046.037.095.032.143-.004.046-.002.091-.006.139-.004.045-.02.09-.024.136s.033.093.028.14c-.004.046-.078.087-.082.133-.002.045 0 .093-.002.139-.002.045.015.093.013.138s.017.093.015.139c-.002.045-.043.09-.045.136s.058.093.058.14c0 .046-.043.092-.043.14 0 .045-.035.09-.035.138 0 .045.05.093.05.14 0 .046.006.092.008.14 0 .045-.006.092-.004.138 0 .045.015.09.015.138 0 .046-.06.094-.06.14.002.045.062.09.062.136.003.045-.028.093-.026.138s.018.091.022.139c.002.045-.041.095-.037.14.002.046.024.091.028.137.005.045.035.09.04.136l.017.137c.004.045.037.088.04.134.005.045-.06.1-.055.145s.002.093.006.138c.007.046.046.087.052.133.007.045-.017.095-.01.14.006.046.027.09.036.135.007.045.041.086.05.132.006.045-.013.095-.005.14.01.046.042.087.05.133l.026.136c.009.045-.008.095 0 .14s.011.094.02.137c.01.046.039.087.05.13l.034.134c.011.046.033.087.046.13.01.046.056.08.067.124.013.045.015.09.028.134s.002.095.017.138c.013.044.002.096.015.139.014.043.046.082.061.126.015.043.05.08.065.123s-.03.11-.015.152c.015.043.097.06.115.104.017.043.008.095.026.136.017.043.054.076.073.119q.026.064.054.126c.02.04-.017.11.002.151s.057.076.078.115c.022.041.053.078.072.117.022.041.097.052.119.09.024.042-.02.118.004.157s.096.05.12.086c.023.04.036.085.062.124s.035.088.06.125c.027.037.077.059.103.096q.044.053.089.104c.03.036.06.067.09.101.03.035.033.096.063.128.033.033.102.028.134.06.033.033.07.06.102.09.035.03.065.062.1.093.037.03.047.088.082.114.037.028.087.035.126.061s.052.089.09.113c.04.023.096.017.137.038.041.022.097.01.139.029.04.02.078.047.119.065q.063.026.127.045c.044.013.078.06.122.074.043.01.084.047.13.056.045.009.095-.015.14-.009.046.007.09.042.135.044s.093-.007.138-.007.091-.017.137-.02c.045-.001.093.016.138.012.046-.005.091-.02.135-.029.045-.008.093-.008.136-.017s.078-.06.121-.074.102.013.143-.002c.043-.015.07-.076.11-.093.042-.017.072-.056.113-.076s.078-.04.12-.062c.038-.022.069-.057.107-.08.037-.024.083-.037.12-.066l.106-.082c.034-.028.104-.015.138-.045s.044-.087.078-.117c.033-.03.082-.046.115-.078.03-.033.045-.082.076-.117.03-.033.097-.037.125-.072s.024-.097.052-.132c.028-.034.046-.078.072-.114s.075-.057.101-.096c.026-.036.014-.1.04-.138.023-.037.082-.054.105-.093.024-.04.053-.074.076-.113.022-.039.005-.1.029-.14.021-.04.099-.05.12-.092.022-.039.05-.078.07-.119s.009-.097.028-.138.044-.08.063-.122c.017-.04-.013-.104.004-.145s.093-.058.11-.101c.018-.042-.021-.106-.006-.148.015-.04.063-.073.078-.117.015-.043.065-.073.078-.116.015-.044-.03-.104-.017-.148.013-.043.021-.086.034-.13.014-.043.057-.075.07-.12.013-.044-.002-.094.01-.14.011-.043.029-.084.04-.13.01-.043.047-.08.058-.125.01-.043.026-.087.035-.132.01-.043.05-.082.06-.126.009-.043-.021-.097-.01-.14q.013-.067.028-.133c.008-.043-.022-.095-.013-.14.008-.043.056-.082.063-.126.008-.045.04-.084.047-.13l.024-.134.015-.134c.007-.046.007-.091.013-.137.006-.045-.037-.095-.03-.14s.036-.087.043-.132c.004-.046-.002-.091.004-.137.005-.045.048-.086.052-.132.005-.045.02-.089.024-.134s-.06-.096-.058-.14c.004-.046.015-.09.02-.135.001-.046.045-.087.047-.132s-.007-.091-.005-.137c.003-.045.024-.088.026-.134.003-.045-.05-.093-.047-.139.002-.045.06-.088.063-.134.002-.045-.059-.093-.059-.138s.022-.091.022-.137c0-.045.032-.09.032-.136s-.015-.091-.015-.139c0-.045.013-.09.013-.136s-.03-.091-.03-.137c0-.045-.024-.09-.024-.136s.026-.091.024-.136.032-.094.03-.137c-.002-.045-.035-.089-.037-.134s.024-.093.022-.137l-.009-.136c-.002-.045-.067-.087-.069-.132s.07-.095.065-.14c-.004-.046-.087-.085-.091-.13-.004-.046.028-.094.024-.14-.005-.045-.018-.09-.022-.133-.004-.046-.039-.087-.043-.133-.005-.045.043-.097.039-.143-.007-.045-.054-.084-.059-.13-.006-.045.018-.095.011-.138-.006-.046-.039-.087-.045-.132-.007-.046-.033-.087-.041-.132-.007-.046.047-.1.04-.145l-.019-.134c-.008-.046-.063-.08-.071-.126-.009-.046-.035-.087-.044-.13q-.014-.067-.032-.132c-.01-.045-.004-.091-.015-.136s.045-.104.035-.15c-.011-.043-.08-.073-.091-.117-.011-.043 0-.093-.014-.138-.012-.044-.034-.085-.047-.128s-.065-.076-.078-.12c-.013-.043.024-.101.009-.144-.013-.044-.063-.076-.076-.117-.015-.044-.011-.093-.026-.135s-.063-.073-.08-.114c-.015-.043-.024-.089-.04-.13-.017-.043 0-.098-.017-.139-.017-.04-.026-.088-.043-.13-.017-.04-.02-.09-.039-.132-.02-.04-.063-.071-.082-.112s-.063-.07-.082-.11c-.022-.042-.022-.092-.044-.13-.021-.04-.071-.063-.095-.102-.024-.04-.02-.093-.043-.133-.024-.039-.029-.09-.052-.127-.026-.04-.108-.037-.135-.074-.025-.037.011-.119-.017-.156s-.104-.034-.132-.07-.03-.09-.06-.125c-.03-.034-.07-.06-.1-.093-.03-.034-.024-.102-.056-.134-.033-.033-.085-.046-.117-.076-.033-.03-.074-.056-.107-.084-.034-.03-.062-.067-.097-.096-.037-.028-.097-.021-.134-.047s-.044-.098-.083-.121c-.038-.024-.095-.02-.134-.042-.039-.021-.063-.075-.104-.095s-.106.015-.149-.002c-.041-.017-.07-.072-.11-.087-.044-.015-.096.005-.139-.008s-.076-.07-.12-.08l-.133-.03c-.044-.01-.096.03-.141.025-.046-.004-.087-.037-.132-.039-.026-.017-.072-.002-.117-.002m-28.299 8.194c.046 0 .091-.024.135-.024.045.002.09-.005.134-.002.045.002.089.032.132.037.046.004.087.03.132.036.043.005.087.024.13.028.043.007.093-.013.137-.006.043.006.08.052.125.06.043.01.093-.01.136-.002.044.011.094-.004.137.007s.09.006.134.017c.043.013.067.091.108.104.044.013.093.002.135.015.043.015.078.046.121.06.041.016.09.014.132.031.041.017.08.04.121.056.041.018.072.057.113.074s.102-.006.14.013c.042.02.057.087.096.106s.104-.006.143.013c.039.022.071.059.11.08s.07.059.106.083c.046.028.104.023.156.023.065 0 .11-.039.165-.084.03-.026.067-.039.084-.074.018-.036-.008-.073-.006-.112s.08-.093.067-.13c-.024-.063-.037-.059-.063-.123-.024-.063-.073-.046-.1-.109-.023-.063.026-.082.003-.147-.024-.063-.063-.05-.087-.113s-.037-.058-.06-.123c-.024-.063-.02-.065-.044-.13-.024-.063-.004-.071-.03-.134-.024-.063-.002-.072-.026-.137-.024-.062-.065-.047-.089-.112s-.026-.063-.05-.128c-.024-.063-.035-.06-.058-.123-.024-.063.036-.087.013-.152-.024-.063-.074-.046-.098-.108-.024-.063.005-.074-.021-.139l-.048-.128c-.024-.062-.009-.069-.035-.134-.024-.065-.088-.039-.112-.104-.024-.063.026-.082.002-.147-.024-.063-.035-.06-.06-.123s-.035-.061-.06-.124l-.047-.128c-.024-.065-.015-.067-.039-.132l-.047-.128c-.024-.064-.067-.047-.094-.11-.023-.065.042-.089.018-.154-.024-.062-.07-.047-.093-.11-.024-.063-.03-.06-.057-.126-.023-.062-.012-.067-.039-.132-.023-.065-.06-.05-.086-.114-.024-.066.043-.091.017-.154-.024-.065-.03-.06-.054-.126-.024-.065-.043-.056-.067-.121s-.046-.056-.07-.12c-.023-.064.014-.077-.01-.142-.024-.063-.082-.041-.106-.106s.013-.078-.011-.143.006-.076-.02-.14c-.024-.066-.071-.049-.095-.111-.024-.063-.032-.063-.056-.126-.015-.037-.026-.065-.052-.093s-.059-.035-.093-.05c-.035-.015-.06-.084-.1-.084-.004 0-.006.058-.01.058-.042.002-.085-.02-.12-.002-.037.017-.058.054-.084.085-.026.03-.087.05-.1.09-.013.044-.006.094-.02.137-.012.043.003.095-.01.139-.013.043-.022.088-.035.132-.013.043 0 .095-.013.138s-.095.065-.108.108c-.015.044-.037.085-.052.128-.015.044.004.098-.01.14-.016.044-.057.077-.072.12s-.015.09-.03.134c-.016.043-.005.095-.02.139-.015.043-.056.076-.072.119s-.006.095-.021.136q-.022.066-.048.128c-.015.043-.058.076-.074.117-.015.043-.04.082-.056.123-.017.044-.015.091-.03.135l-.048.127c-.017.044-.021.09-.039.132-.017.044-.002.098-.02.14-.016.042-.043.08-.06.123s-.056.075-.073.119c-.018.043-.059.073-.076.117-.018.043-.018.09-.035.134-.017.043-.015.093-.032.134s-.096.059-.113.102.028.11.01.154c-.016.04-.058.073-.075.117-.017.04-.015.093-.032.134l-.055.125c-.017.041-.093.059-.11.102-.024.058-.006.065-.032.123-.024.059-.016.063-.04.122-.023.058.03.082.007.14-.02.048-.097.087-.09.137.006.05.077.078.107.119.029.035.048.07.085.089.039.02.078.05.121.05.015 0 .028-.026.043-.03.044-.007.085-.02.128-.024.043-.005.087-.016.13-.018.043-.004.089.033.132.028.044-.002.085-.056.128-.058.037.006.082.037.125.037m52.022 0c.045 0 .091-.024.134-.024.046.002.09-.005.135-.002.045.002.088.032.132.037s.086.03.132.036c.043.005.086.024.13.028.043.007.093-.013.136-.006s.08.052.125.06c.044.01.094-.01.137-.002.043.011.093-.004.137.007.043.01.09.006.133.017.044.013.068.091.109.104.043.013.093.002.134.015.044.015.078.046.121.06.042.016.091.014.132.031s.08.04.121.056c.042.018.072.057.114.074.04.017.1-.006.14.013.041.02.056.087.095.106.04.02.105-.006.143.013.04.022.072.059.11.08.04.022.07.059.107.083.045.028.104.023.156.023.064 0 .11-.039.164-.084.03-.026.067-.039.085-.074.017-.036-.009-.073-.007-.112s.08-.093.067-.13c-.023-.063-.036-.059-.063-.123-.023-.063-.073-.046-.1-.109-.023-.063.027-.082.003-.147-.023-.063-.063-.05-.087-.113s-.036-.058-.06-.123c-.024-.063-.02-.065-.043-.13-.024-.063-.005-.071-.03-.134s-.003-.072-.027-.137c-.023-.062-.065-.047-.088-.112-.024-.065-.027-.063-.05-.128-.024-.063-.035-.06-.059-.123s.037-.087.013-.152c-.024-.063-.074-.046-.097-.108-.024-.063.004-.074-.022-.139l-.047-.128c-.025-.062-.01-.069-.035-.134-.024-.065-.09-.039-.113-.104-.024-.063.026-.082.002-.147-.024-.063-.034-.06-.06-.123-.024-.063-.035-.061-.059-.124l-.047-.128c-.024-.065-.015-.067-.04-.132l-.047-.128c-.024-.064-.067-.047-.093-.11-.024-.065.041-.089.017-.154-.023-.062-.07-.047-.093-.11-.024-.063-.03-.06-.056-.126-.024-.062-.013-.067-.039-.132-.024-.065-.061-.05-.087-.114-.024-.066.043-.09.018-.154-.024-.065-.03-.06-.055-.126-.023-.065-.043-.056-.067-.121-.023-.065-.045-.056-.069-.12s.013-.077-.011-.142c-.023-.063-.082-.041-.106-.106s.013-.078-.011-.143c-.023-.065.007-.076-.019-.14-.024-.066-.072-.049-.095-.111-.024-.065-.033-.063-.057-.126-.015-.037-.025-.065-.052-.093s-.058-.035-.093-.05-.06-.084-.1-.084c-.004 0-.006.058-.01.058-.041.002-.085-.02-.12-.002-.036.017-.058.054-.084.085-.026.03-.086.05-.1.088-.012.044-.006.093-.019.137-.013.043.002.095-.01.138-.014.044-.022.089-.035.132s0 .096-.013.139-.096.065-.109.108c-.015.044-.036.085-.052.128-.015.043.005.097-.01.14s-.057.076-.072.12c-.015.043-.015.09-.03.134-.015.043-.005.095-.02.139-.015.043-.056.075-.071.119-.016.043-.007.095-.022.136q-.022.066-.047.128c-.015.043-.059.076-.074.119s-.041.082-.056.123c-.017.044-.015.093-.03.135l-.048.127c-.017.044-.022.09-.04.132-.017.044-.002.098-.019.14s-.043.081-.06.123c-.018.043-.057.075-.074.119-.018.043-.058.073-.076.117-.017.043-.017.09-.035.134-.017.043-.015.093-.032.134s-.095.059-.112.102.027.11.01.154c-.017.04-.058.073-.075.117-.018.04-.016.093-.033.134l-.054.125c-.018.044-.093.059-.11.102-.024.058-.007.065-.033.123-.024.059-.015.063-.039.122s.03.082.007.14c-.02.048-.098.087-.091.137.006.05.078.078.108.119.028.035.047.07.084.087.04.02.078.05.121.05.016 0 .029-.026.044-.03.043-.007.085-.02.128-.025.043-.004.086-.015.13-.017.043-.004.088.032.132.028.043-.002.084-.056.127-.058.037.008.083.039.126.039M7.617 13.55c-.047 0-.09.026-.138.029-.048.002-.091.012-.136.017-.048.004-.096-.017-.141-.01-.046.005-.095-.01-.141.001s-.095.009-.138.022c-.046.013-.083.052-.126.067s-.102 0-.143.017c-.043.02-.074.065-.113.087s-.069.065-.108.09-.065.066-.102.092c-.036.028-.117.004-.151.034-.035.03-.052.083-.082.115-.033.033-.076.056-.107.093-.03.035-.043.085-.069.122l-.082.112c-.024.04-.067.07-.089.11-.022.042.002.104-.017.148-.02.041-.087.065-.102.108-.017.043.02.106.004.15-.015.043-.043.082-.056.127-.013.044-.039.085-.05.13-.01.046 0 .093-.008.141-.01.045.008.093.002.14-.007.046-.035.087-.04.135-.004.045.025.093.022.14-.004.046-.095.087-.097.133-.002.045.009.093.009.14-.003.046.052.094.052.141 0 .067-.055.067-.055.134 0 .068.042.068.042.135s.013.067.013.134-.007.067-.007.134-.022.067-.022.134c0 .068-.023.068-.023.137 0 .067.043.067.043.136v.134c0 .068.01.068.01.135s-.064.067-.064.134.052.067.052.134-.03.067-.03.137c0 .067-.003.067-.003.136 0 .067-.017.067-.017.137 0 .067.067.067.067.134s-.054.067-.054.136c0 .067.01.067.01.137 0 .067.012.067.012.136 0 .067-.003.067-.003.136 0 .068-.01.068-.01.137v.136c0 .067.045.067.045.137 0 .067-.071.067-.071.134s.047.067.047.134.007.067.007.137c0 .067-.011.067-.011.136 0 .07.039.067.039.136 0 .068-.072.068-.072.137 0 .067.007.067.007.136 0 .067.02.067.02.137 0 .067.021.067.021.134s-.041.067-.041.136c0 .067.06.067.06.137s-.04.07-.04.136c0 .07-.033.07-.033.137 0 .056.063.101.093.15.03.044.07.068.121.092a.24.24 0 0 0 .106.028c.037 0 .061-.017.094-.03.032-.013.097.02.123-.004.032-.03.026-.104.06-.135.035-.03.09-.034.124-.065.035-.03.06-.069.095-.097s.098-.022.135-.05c.034-.028.058-.071.093-.097.034-.028.054-.078.088-.104l.104-.087c.037-.026.057-.076.093-.104.037-.026.115.005.152-.021s.078-.046.115-.072.054-.08.09-.106c.038-.026.092-.028.128-.054s.065-.065.102-.091.059-.074.095-.1c.04-.026.091-.03.13-.056s.061-.074.1-.1l.113-.08c.036-.026.09-.03.13-.056.036-.026.08-.045.116-.074.037-.025.063-.069.1-.097l.11-.085c.037-.028.068-.064.104-.093.037-.028.052-.082.09-.11.036-.028.077-.05.112-.078.037-.03.086-.041.121-.07s.087-.038.121-.069c.035-.03.057-.073.091-.106.035-.03.052-.078.085-.11.032-.033.112-.017.145-.052.032-.033.013-.115.045-.147.03-.035.08-.05.11-.087.031-.034.044-.084.072-.119.028-.037.059-.07.085-.108.028-.037.106-.04.132-.076.026-.037.036-.087.06-.126s.041-.084.063-.123-.009-.108.013-.15c.022-.04.108-.047.128-.09s-.013-.107.004-.15c.018-.041.048-.078.063-.121s.05-.08.065-.123c.013-.044.002-.096.013-.14q.014-.064.026-.133c.01-.044.015-.09.024-.135.008-.045.054-.084.06-.13.007-.045-.039-.097-.034-.142l.006-.137c.002-.045.011-.089.011-.136.002-.046.041-.091.041-.137 0-.045-.024-.09-.026-.134s.041-.093.037-.138-.041-.09-.046-.133c-.004-.045-.047-.084-.054-.127-.006-.046-.002-.091-.01-.134l-.029-.133c-.01-.043.013-.097 0-.14s-.002-.096-.017-.139-.06-.076-.078-.117c-.017-.043-.006-.097-.026-.138s-.05-.078-.071-.12c-.022-.04-.059-.073-.08-.112-.024-.04-.03-.091-.057-.128-.026-.037-.06-.071-.086-.106-.028-.037-.05-.078-.08-.113-.03-.034-.09-.04-.122-.073s-.034-.095-.069-.126c-.032-.03-.097-.026-.134-.054-.035-.028-.085-.039-.121-.065l-.11-.076c-.04-.024-.083-.034-.122-.056-.04-.022-.072-.052-.113-.071a2 2 0 0 0-.123-.05c-.041-.018-.065-.083-.108-.098-.044-.015-.098.007-.141-.006-.044-.011-.082-.048-.126-.056-.043-.01-.093.006-.138 0-.046-.007-.085-.061-.13-.065-.046-.005-.093.034-.141.032-.046-.01-.091-.008-.136-.008Zm26.651 0c-.045 0-.089.026-.134.029-.046.002-.089.015-.132.019-.046.004-.093-.015-.137-.009-.045.009-.093-.006-.136.005-.045.01-.093.01-.134.024-.044.012-.078.054-.12.071-.04.017-.099.002-.138.022-.041.02-.067.067-.106.09-.039.024-.063.068-.1.094s-.06.067-.095.095-.115.009-.147.039c-.033.03-.046.082-.076.117-.03.034-.071.058-.1.095-.026.035-.036.085-.062.122q-.038.054-.076.112c-.022.039-.063.07-.085.11-.02.04.007.102-.013.143-.017.042-.082.065-.1.106-.014.042.023.102.01.146-.014.043-.042.08-.053.125-.01.043-.039.082-.047.128-.009.043.002.09-.007.136-.008.044.009.091.003.137-.007.043-.033.084-.04.13-.004.043.026.09.022.136s-.095.085-.097.13.008.09.008.136c-.002.046.052.091.052.137 0 .07-.054.07-.054.138 0 .07.041.07.041.139 0 .07.013.07.013.138 0 .07-.006.07-.006.14 0 .068-.022.068-.022.138 0 .069-.024.069-.024.138 0 .07.044.07.044.139v.138c0 .07.01.07.01.139 0 .07-.064.07-.064.139s.052.069.052.138c0 .07-.03.07-.03.139s-.003.069-.003.138c0 .07-.017.07-.017.139 0 .07.067.07.067.138 0 .07-.054.07-.054.139 0 .07.01.07.01.139s.011.069.011.138c0 .07-.002.07-.002.139s-.01.069-.01.138v.139c0 .07.045.07.045.139s-.072.069-.072.138c0 .07.048.07.048.139s.007.069.007.138c0 .07-.011.07-.011.139 0 .07.039.07.039.138 0 .07-.072.07-.072.139 0 .07.007.07.007.139s.02.069.02.138c0 .07.02.07.02.139s-.04.069-.04.138c0 .07.06.07.06.139 0 .07-.04.07-.04.138 0 .059-.012.13.02.178.031.046.11.05.161.074.037.015.07.013.106.013.037 0 .067 0 .102-.013s.05-.04.078-.068c.032-.032.11-.019.145-.052.035-.032.028-.105.063-.138.034-.03.09-.037.128-.07.034-.03.062-.07.097-.101.037-.03.102-.024.136-.054.037-.03.061-.074.098-.104s.056-.08.09-.11c.038-.029.072-.063.109-.091.037-.029.056-.08.093-.109s.117-.002.154-.03.08-.05.117-.078.052-.084.089-.113c.036-.028.09-.032.127-.06.037-.029.063-.07.1-.098s.056-.078.093-.106.091-.034.126-.063.056-.078.093-.106q.055-.043.106-.086c.037-.029.089-.037.123-.068.035-.03.076-.051.113-.082.035-.03.056-.075.09-.106l.103-.095c.034-.03.058-.072.093-.104.032-.032.04-.089.073-.121.033-.033.072-.059.102-.093.033-.035.08-.052.11-.087s.08-.052.111-.087c.03-.034.046-.082.074-.119s.039-.086.065-.123.108-.037.134-.076-.007-.115.017-.154.07-.065.093-.106c.022-.039.026-.09.046-.132l.063-.121c.019-.041.095-.059.112-.102.017-.041.017-.093.032-.136.016-.044.022-.091.037-.135.013-.043-.03-.104-.017-.149.013-.043.097-.07.106-.115.011-.043-.034-.102-.026-.147s.033-.087.04-.132.034-.087.04-.134c.007-.046-.015-.093-.01-.141.004-.046.002-.091.004-.139.002-.045 0-.09.002-.138.002-.046.041-.091.041-.139 0-.045-.052-.09-.054-.136s-.009-.091-.01-.137l-.007-.136c-.005-.046.03-.095.023-.14s-.036-.087-.043-.133c-.008-.045.028-.1.02-.143-.009-.045-.052-.082-.063-.127-.011-.046-.059-.079-.072-.122s-.015-.09-.03-.132a2 2 0 0 0-.048-.128c-.017-.043-.002-.1-.021-.14-.02-.042-.017-.096-.037-.137-.022-.04-.071-.067-.095-.106s-.024-.095-.05-.134-.063-.07-.091-.106c-.028-.037-.07-.063-.1-.095-.03-.035-.047-.085-.08-.115-.032-.033-.073-.059-.108-.089s-.067-.067-.104-.095-.097-.022-.136-.046-.059-.084-.098-.106-.102 0-.145-.02c-.041-.017-.09-.014-.134-.03l-.128-.04c-.043-.014-.089-.012-.134-.02s-.085-.028-.13-.035c-.045-.006-.089-.006-.134-.01-.037.012-.08-.011-.126-.011ZM20.027 40c-.24 0-.468-.024-.675-.067-.224-.048-.41-.147-.609-.264-.236-.134-.398-.262-.513-.403a2.2 2.2 0 0 1-.32-.58c-.063-.16-.087-.336-.113-.522l-.02-.137a4 4 0 0 0-.05-.255c-.03-.145-.06-.284-.06-.418 0-.242.037-.472.071-.682.03-.186.102-.357.171-.524l.087-.21c.074-.184.145-.36.256-.492a1.9 1.9 0 0 1 .515-.409 2.2 2.2 0 0 1 .623-.231 3.2 3.2 0 0 1 .674-.085c.154 0 .3.037.444.07l.17.038c.209.04.395.104.57.197l.083.041c.162.083.316.163.424.284.147.169.26.344.331.52.072.175.109.387.143.608.009.052-.07.091-.123.102-.215.048-.32.08-.427.11a6 6 0 0 1-.418.109l-.132-.085c-.073-.338-.177-.563-.325-.712-.21-.212-.517-.238-.762-.238-.219 0-.502.023-.736.205a1.17 1.17 0 0 0-.416.654c-.04.163-.039.345-.037.559l.003.171c0 .316.008.537.05.725.075.338.19.568.35.702.225.188.526.212.762.212.347 0 .596-.082.784-.262.165-.158.245-.39.327-.734.011-.045.08-.071.143-.071.221.04.33.069.45.101.107.029.22.059.431.102.07.013.078.035.07.093a3 3 0 0 0-.026.21 1.6 1.6 0 0 1-.085.418c-.075.18-.21.325-.337.466a1.7 1.7 0 0 1-.52.4c-.173.087-.368.15-.593.191l-.152.03c-.156.028-.316.063-.483.063m5.222-.036c-.21 0-.407-.002-.591-.035-.243-.04-.422-.073-.574-.136a2 2 0 0 1-.491-.314 2 2 0 0 1-.397-.425 2.4 2.4 0 0 1-.244-.534c-.04-.113-.05-.243-.063-.381l-.022-.204c-.024-.177-.024-.36-.024-.556a4.4 4.4 0 0 1 .033-.62q.015-.104.023-.21c.014-.134.027-.26.066-.366.06-.17.138-.37.244-.528.09-.13.221-.238.349-.34l.07-.056c.12-.1.287-.223.482-.308.18-.078.36-.153.552-.188a1 1 0 0 1 .158-.013q.097 0 .202.009.113.007.231.008c.206 0 .394.033.576.063.219.04.394.089.55.156.232.097.386.162.507.26.145.121.26.29.361.44.1.147.182.313.252.508.021.065.05.128.078.193.05.117.101.236.12.361.029.187.029.388.029.594 0 .123-.028.249-.054.37-.015.076-.032.15-.041.223-.013.082-.015.167-.02.25a1.3 1.3 0 0 1-.047.341 2.3 2.3 0 0 1-.265.524c-.106.163-.24.312-.387.436-.13.108-.299.177-.476.255-.21.089-.392.167-.59.2a2.5 2.5 0 0 1-.404.023zm0-4.212q-.444 0-.758.195c-.255.16-.36.42-.427.654a2.7 2.7 0 0 0-.097.74c0 .265.03.503.098.752.086.32.216.526.417.665.23.158.492.24.758.24.245 0 .557-.02.8-.182.205-.138.367-.387.454-.701.048-.167.043-.36.041-.583l-.002-.19c0-.258-.033-.494-.102-.739-.073-.257-.175-.515-.418-.666q-.299-.183-.764-.184Zm4.221 4.15c-.177 0-.275-.007-.374-.013a5 5 0 0 0-.448-.016c-.07 0-.109-.064-.109-.125 0-.169.005-.251.007-.338a7 7 0 0 0-.007-.695 4 4 0 0 1-.013-.331c0-.163.009-.245.02-.327.01-.089.02-.178.02-.358 0-.175-.005-.26-.01-.348-.004-.085-.008-.167-.008-.334 0-.175-.007-.262-.013-.35a4 4 0 0 1-.013-.332 4 4 0 0 1 .013-.33c.006-.09.013-.176.013-.354 0-.169.004-.253.006-.338.003-.086.005-.173.005-.346 0-.005.002-.134.086-.134.16 0 .24.006.32.013.085.006.17.01.339.01.158 0 .238.007.318.013.084.007.171.013.34.013.167 0 .251-.004.335-.008.08-.005.16-.009.323-.009.171 0 .256-.009.342-.017.08-.009.158-.018.316-.018.16 0 .24.005.32.011.085.005.17.009.339.009.069 0 .127.052.127.117 0 .206.007.307.016.411.006.098.015.195.015.392 0 .06-.085.132-.158.132l-.63-.006c-.154 0-.232-.005-.31-.009a5 5 0 0 0-.32-.008 3 3 0 0 1-.306-.014 4 4 0 0 0-.325-.013c-.214 0-.342.208-.342.412l.007.61c0 .21.132.347.335.347l.555-.009c.12 0 .177.015.244.033.074.02.154.04.31.04.143 0 .212-.003.284-.006.067-.004.134-.008.27-.008.067 0 .096.028.096.097 0 .19.015.284.032.38.015.084.028.168.028.337 0 .067-.089.158-.156.158a1 1 0 0 1-.249-.028 1.2 1.2 0 0 0-.305-.035c-.145 0-.219.009-.292.017-.065.01-.13.016-.262.016-.134 0-.204-.005-.271-.01a5 5 0 0 0-.284-.006.375.375 0 0 0-.368.382c0 .151.007.227.013.303.007.069.013.138.013.28s-.004.211-.006.283c-.005.073-.007.15-.007.296 0 .07-.078.156-.143.156h-.078zm3.46-.022c-.072 0-.15-.07-.15-.133 0-.167.004-.251.009-.334a6 6 0 0 0-.005-.699 4 4 0 0 1-.013-.331c0-.156.018-.234.035-.314.02-.091.041-.184.041-.37 0-.176-.006-.265-.015-.353-.007-.083-.015-.165-.015-.33 0-.175-.009-.264-.015-.352a3 3 0 0 1-.016-.33c0-.162.014-.242.024-.322.013-.089.028-.18.028-.362 0-.175-.008-.264-.015-.353a3 3 0 0 1-.015-.329c0-.063.052-.11.121-.11.174 0 .26-.011.345-.022.078-.01.156-.02.311-.02.158 0 .236.01.314.02.085.01.172.02.343.02.17 0 .255-.01.34-.016a3 3 0 0 1 .316-.015c.166 0 .25-.004.335-.008.08-.005.16-.01.323-.01.162 0 .242.005.323.01.084.004.166.008.335.008.056 0 .082.087.082.147l-.002.804c0 .11-.054.11-.08.11-.162 0-.245.007-.325.013a3 3 0 0 1-.305.013c-.147 0-.219-.013-.292-.026a1.7 1.7 0 0 0-.338-.028c-.165 0-.247.009-.33.02-.075.008-.149.017-.3.017-.202 0-.353.162-.353.377 0 .149-.004.223-.01.298-.005.078-.01.156-.01.312 0 .208.163.368.373.368.136 0 .203.005.273.007s.835.009.835.009c.15 0 .224-.013.3-.026.064-.011.127-.024.255-.024.047 0 .084.084.084.16 0 .186.011.28.024.375.01.084.022.17.022.342 0 .08-.108.084-.13.084-.152 0-.234.017-.306.033a1 1 0 0 1-.248.028c-.13 0-.193-.011-.258-.022a1.5 1.5 0 0 0-.297-.024c-.145 0-.216.007-.288.013a2 2 0 0 1-.266.013c-.21 0-.388.17-.388.368 0 .143-.004.215-.006.286a5 5 0 0 0 .006.598c.007.07.013.14.013.28q0 .078-.121.08a4 4 0 0 0-.448.027c-.113.011-.223.022-.45.022Zm4.268.03c-.067 0-.158-.095-.158-.164 0-.163.01-.243.022-.325.013-.089.023-.178.023-.357 0-.176-.008-.264-.015-.353a3 3 0 0 1-.015-.33c0-.166.004-.25.011-.333.004-.089.008-.175.008-.348 0-.167.005-.252.01-.336.004-.087.008-.173.008-.346 0-.174-.002-.26-.004-.345-.003-.084-.007-.169-.007-.337v-.685c0-.167.007-.249.01-.333a4 4 0 0 0 .012-.351c0-.07.04-.15.1-.15.164 0 .246.011.328.022.091.013.182.024.362.024l.69-.004c.168 0 .252.006.336.013.09.006.178.013.356.013.177 0 .264-.005.352-.011.085-.004.17-.01.338-.01.178 0 .264-.005.353-.012.085-.004.17-.01.338-.01.078 0 .084.095.084.125 0 .188.011.284.022.377.01.086.022.173.022.346 0 .076-.07.16-.128.16-.162 0-.242-.01-.325-.021-.089-.011-.177-.022-.357-.022-.178 0-.266.009-.353.017-.082.01-.165.018-.33.018-.157 0-.233-.015-.315-.033a1.5 1.5 0 0 0-.366-.039c-.217 0-.334.215-.334.414l.002.284c0 .21.13.344.332.344.147 0 1.2.013 1.2.013.147 0 .22.004.294.006.076.005.151.007.305.007.072 0 .104.065.104.123 0 .184.009.277.017.37a3 3 0 0 1 .016.347c0 .06-.07.1-.137.1-.154 0-.23.004-.305.008a4 4 0 0 1-.292.009c-.146 0-.22-.007-.29-.013-.079-.004-.154-.011-.308-.011-.156 0-.236.009-.312.015a2 2 0 0 1-.288.015c-.214 0-.398.171-.398.37 0 .094.004.14.008.185.005.04.007.082.007.164 0 .206.175.38.383.38l.676.008c.166 0 .249.004.333.008a6 6 0 0 0 .344.007l.676.009c.048 0 .136.017.136.084l-.006.723c0 .072-.067.145-.13.145l-.686.005c-.17 0-.252-.005-.338-.009a6 6 0 0 0-.351-.009 6 6 0 0 0-.35.01 6 6 0 0 1-.339.008c-.149 0-.231-.007-.305-.013-.07-.005-.13-.011-.223-.011l-.162.004c-.145.005-.232.013-.306.018a2 2 0 0 1-.385.023m6.034-.003a2 2 0 0 1-.35-.02c-.083-.008-.172-.019-.334-.023l-.29-.013a6 6 0 0 0-.403-.011c-.065 0-.154-.03-.154-.089 0-.169.005-.251.007-.337a7 7 0 0 0 .006-.345c0-.162.009-.245.02-.327.01-.089.02-.177.02-.355a6 6 0 0 1 .008-.333 6 6 0 0 0-.002-.698 4 4 0 0 1-.013-.333c0-.178-.011-.266-.02-.355-.008-.082-.02-.163-.02-.327 0-.165.01-.247.016-.33a3 3 0 0 0 .015-.352l.002-.682c0-.067.048-.143.113-.143.175 0 .262-.002.348-.007.085-.002.172-.006.34-.006.167 0 .252.009.336.015.089.009.178.015.355.015.167 0 .247.011.331.02.091.01.18.021.362.021s.273-.013.364-.026c.082-.01.162-.023.327-.023.164 0 .247.012.329.023.09.013.182.026.364.026.039 0 .143.015.143.08 0 .172-.016.256-.029.343-.015.095-.03.19-.03.38 0 .066-.03.154-.084.154-.167 0-.252-.004-.334-.008a6 6 0 0 0-.348-.009c-.167 0-.247-.007-.332-.013a4 4 0 0 0-.35-.013c-.167 0-.247-.006-.332-.013a3 3 0 0 0-.35-.015c-.217 0-.369.218-.369.413 0 .061-.006.091-.01.122-.007.04-.014.08-.014.162 0 .21.191.407.395.407.156 0 .233-.008.311-.015.072-.006.143-.015.286-.015.145 0 .219.004.293.009a5 5 0 0 0 .619-.005 3 3 0 0 1 .288-.013c.076 0 .16.067.16.126 0 .177-.004.266-.007.353-.002.09-.004.182-.004.361 0 .065-.08.141-.15.141-.142 0-.214-.009-.285-.015a3 3 0 0 0-.312-.015c-.156 0-.236.008-.312.017a2 2 0 0 1-.285.015c-.141 0-.21-.013-.28-.024-.08-.013-.16-.026-.32-.026-.221 0-.358.208-.358.401 0 .078-.006.117-.01.156a1 1 0 0 0-.013.193c0 .205.175.38.38.38.178 0 .267-.01.356-.023.08-.01.16-.022.32-.022.154 0 .23.018.31.037.087.02.184.043.368.043.175 0 .264-.008.35-.017.081-.008.163-.017.326-.017.065 0 .132.045.132.112 0 .184.006.278.013.37.006.09.013.178.013.353 0 .059-.087.107-.158.107-.176 0-.262.002-.349.006a6 6 0 0 1-.338.007c-.18 0-.27.013-.361.023a2 2 0 0 1-.327.022zm9.128.053q-.11-.002-.23-.013a3 3 0 0 0-.547-.005q-.117.01-.223.011a1 1 0 0 1-.182-.015 2.2 2.2 0 0 1-.621-.242 1.9 1.9 0 0 1-.516-.416 2.3 2.3 0 0 1-.311-.59c-.061-.16-.085-.332-.111-.517l-.02-.142a4.5 4.5 0 0 1-.056-.678c0-.243.026-.466.06-.678a2.8 2.8 0 0 1 .168-.645 2 2 0 0 1 .353-.552l.08-.098c.121-.145.233-.283.385-.368.14-.08.316-.115.503-.151l.138-.029c.269-.058.461-.101.667-.101.227 0 .446.043.621.078q.312.059.576.197c.165.086.31.205.46.376.134.152.235.319.311.511.067.165.115.353.152.594.008.058-.009.123-.072.138-.216.048-.322.083-.428.115-.104.032-.206.065-.416.11l-.108-.028c-.04-.013-.072-.06-.08-.097-.074-.336-.126-.567-.28-.723-.18-.182-.437-.273-.762-.273q-.352 0-.708.277c-.154.12-.366.284-.448.617-.046.182-.046.4-.046.654 0 .362.046.589.093.797.08.36.18.567.336.695.182.151.429.225.751.225.366 0 .622-.078.8-.249.164-.156.283-.398.363-.738.015-.065.043-.078.091-.078l.372.063c.139.021.25.039.518.093.06.013.1.069.089.136-.033.21-.11.392-.184.567-.037.09-.06.152-.083.21-.054.15-.106.288-.194.386-.098.106-.24.17-.395.242l-.145.07-.138.073c-.139.074-.28.152-.438.182q-.074.01-.145.009m5.19.014q-.105-.002-.215-.013a3 3 0 0 0-.259-.015l-.342.004q-.127.001-.248-.017a2 2 0 0 1-.438-.154l-.2-.087c-.155-.065-.302-.125-.42-.223-.125-.104-.218-.247-.315-.398a2.4 2.4 0 0 1-.29-.565l-.057-.154c-.05-.132-.102-.268-.121-.41a4 4 0 0 1-.041-.599 3.1 3.1 0 0 1 .178-1.165q.107-.302.255-.524c.082-.121.203-.216.329-.316l.16-.13c.126-.104.253-.21.4-.275.118-.05.256-.07.406-.093l.162-.026c.221-.041.394-.074.58-.074.182 0 .353.033.516.061.132.024.2.032.27.039.135.015.262.03.369.076.156.067.311.166.49.312.11.088.19.212.274.344l.136.203c.087.126.178.256.23.403.062.175.123.366.154.567.015.1.004.21-.01.327-.008.087-.017.176-.017.267 0 .21-.02.402-.045.589l-.024.208c-.013.136-.023.264-.063.374a1.6 1.6 0 0 1-.214.383l-.078.115q-.051.079-.095.158a1.2 1.2 0 0 1-.232.319c-.132.11-.296.205-.502.292-.173.073-.36.145-.56.182a.4.4 0 0 1-.122.015Zm-.474-4.24c-.27 0-.525.074-.755.219q-.378.237-.496.634c-.052.182-.05.386-.048.624v.238c0 .258 0 .483.05.67.102.38.305.582.457.686.208.142.45.153.704.153.305 0 .593-.021.844-.19.206-.137.343-.349.43-.663.062-.218.092-.465.092-.755 0-.288-.028-.531-.089-.741-.075-.262-.177-.526-.415-.673a1.43 1.43 0 0 0-.774-.202m3.145 4.143a3 3 0 0 1-.22-.017 2 2 0 0 0-.28-.015c-.071 0-.147-.04-.147-.098l.007-.963c0-.063.069-.126.143-.126.132 0 .197-.006.262-.013.058-.006.117-.013.236-.013.11 0 .162.013.22.026.066.015.139.03.278.03.047 0 .125.02.125.098 0 .245.009.368.018.492.008.117.017.236.017.472 0 .051-.087.09-.162.09-.13 0-.198.011-.26.022a1 1 0 0 1-.182.015z"/></g><defs><clipPath id="a"><path fill="#fff" d="M0 0h81.54v48H0z"/></clipPath></defs></svg>